<svg version="1.2" xmlns="http://www.w3.org/2000/svg" viewBox="0 0 1024 1024" width="1024" height="1024"><style>.a{fill:#4383f2;stroke:#4383f2;stroke-width:2}.b{fill:#4383f2;stroke:#4383f2}.c{fill:#4383f2;stroke:#4383f2;stroke-width:1.0000000000000047}</style><rect width="1024" height="1024" style="fill:#fff"/><path class="a" d="m254.2 161.8l26.5-10v3.3q-50.6 56.5-59.7 56.5v3.3l-16.6-3.3h-3.4l10 13.3-36.5 36.5h-3.3q0-41.5 83-99.6zm132.8 19.9l6.6-29.9 16.6 6.7v6.6l-19.9 19.9h-3.3zm49.8 99.6l46.5-46.5q23.2 30.8 23.2 76.4l-6.6 6.6 6.6 6.7v3.3l-3.3 3.3v3.3l-53.1-9.9 6.6-36.5h-3.3l-10 6.6-6.6-6.6zm-172.7-16.6l13.3-10h10l6.6 6.6-13.3 13.3h-6.6zm212.5 33.2h-16.6v3.3h16.6zm-239.1 26.6v-10h6.7l3.3 3.4 3.3-3.4h6.7v3.4l-39.9 39.8h-36.5v-6.6q13.3-26.6 56.4-26.6zm265.7 13.3l3.3 3.3v13.3q0 9.1-39.9 16.6l-13.2-3.3-10 3.3-3.3-3.3-10 13.3q0 15.7 36.5 16.6 17.5 0.8 36.6-10l3.3 3.3v3.3l-16.6 13.3 3.3 13.3h-19.9q-70.6 0-79.7 10l-3.3-3.4v-9.9l3.3-3.3-3.3-10 3.3-3.3v-3.3l-3.3-10 3.3-19.9-3.3-3.3v-3.4q0-16.6 56.4-16.6l13.3 13.3h13.3q10.8-19.9 29.9-19.9zm-315.5 29.9v-6.7h16.6v6.7zm-6.6 9.9l13.3-3.3 3.3 3.3v3.4l-3.3 3.3h-6.7zm-13.3 6.6l6.7-6.6h3.3l-6.6 6.6zm-6.7 16.6l6.7-6.6 3.3 3.3v6.6l-6.7 6.7-3.3-3.3zm272.3 0h-13.3v3.3h13.3zm-16.6 6.6l-16.6-3.3-3.3 3.3v3.3l16.6 3.4 3.3-3.4zm-26.6 46.5l6.7-6.6h3.3v9.9h-10zm-126.1-3.3h3.3l3.3 3.3v53.2l-6.6 9.9-16.6-3.3h-13.3l6.6 6.7-3.3 3.3v9.9l16.6 16.6q0 9.2-69.7 13.3v-3.3l-20 6.6-3.3-3.3v-6.6l79.7-79.7 13.3 3.3 10-3.3-3.4-23.3zm132.8 26.6v-3.3l33.3 6.6v3.3q0 7.5-36.6 10v-13.3zm93 13.3q13.3 5 13.3 10 0 6.6-29.9 9.9l-3.3-3.3v-3.3q0-6.7 19.9-13.3zm-259 10l-6.6 6.6h9.9v-6.6zm179.3 16.6l6.7-13.3h3.3l3.3 3.3 3.3-3.3h6.7l6.6 6.6-33.2 36.6h3.3l26.6-26.6h3.3v6.6q-3.3 11.7-36.5 29.9 0 16.6-10 16.6l-3.3-3.3v-3.3l6.6-6.7-3.3-3.3v-6.6h6.7l-6.7-10v-3.3q10 0 10-6.6-13.3 0-13.3-6.7 0-6.6 19.9-6.6zm-192.5 3.3h-3.4v13.3h3.4zm205.8 26.5l16.6-13.2 29.9 33.2q29.9-4.2 29.9-13.3h6.6v92.9l-3.3 3.4v3.3l-49.8-3.3h-13.3q0-10-13.3-23.3l-3.3 3.3h-3.3l-3.3-3.3h-3.4q0 6.7-9.9 6.7l-3.3 9.9q13.2 1.7 13.2 10l-3.3 9.9 3.3 3.4h3.4l9.9-3.4 36.6 3.4h19.9v6.6h-3.3l-3.4-3.3h-3.3l-3.3 3.3v6.6l10 3.4 13.2-6.7-3.3-9.9h3.3l10-3.4 3.3 3.4v19.9q0 6.6-13.3 6.6v3.3q13.3 0 13.3 10 0 53.1-33.2 53.1l-33.2 16.6q-4.1-16.6-9.9-16.6v3.4l3.3 16.6-39.9 16.6-23.2-26.6 16.6-23.2q-10 0-10-6.7 10 0 16.6-46.5l-3.3-3.3v-23.2l3.3-3.4-3.3-3.3v-9.9l3.3-3.4-3.3-3.3v-13.3q0-6.6 10-6.6l-10-13.3v-26.5l13.3-16.6 16.6 3.3h3.3l3.3-10zm-152.7 33.2v26.6q-16.6 2.5-16.6 9.9v3.4q16.6 0 16.6 6.6v6.6h-3.3l-10-6.6q-29.9 8.3-29.9 19.9h-16.6q-5.8 0-16.6-33.2-19.9-6.6-19.9-13.3l10-6.6h33.2q24 0 53.1-13.3zm0 59.8v66.4l3.3 23.2-9.9 3.4v3.3q36.5 8.3 36.5 26.5l3.3-3.3h6.6q33.2 10 33.2 19.9l-3.3 16.6 19.9 6.7v6.6q-83 33.2-83 43.2v6.6h26.6l6.6 6.7-3.3 3.3 3.3 3.3-3.3 3.3q-48.1-5-106.2-59.7-33.2-52.3-33.2-69.8h3.3l9.9 3.4v-3.4q0-23.2 20-23.2l9.9 3.3v-3.3l6.7-6.6v-3.4l-6.7-9.9v-3.3l3.4-3.4-3.4-3.3v-3.3q0-6.7 10-6.7l-3.3-3.3v-3.3q0-12.4 29.9-16.6 0-19.9 23.2-19.9zm-23.2 33.2l-6.7 6.6v23.3l6.7 6.6 3.3-26.6zm172.6 6.7h-6.6l-10 26.6 16.6 3.3h16.6v-3.3l-3.3-10h3.3l36.6-6.6-10-10h-3.3q-10.8 0-23.3 10h-3.3zm-185.9 146l29.9 16.6h6.6l10-23.2q-5-33.2-23.3-33.2-10.8 0-23.2 39.8zm252.3-33.2q10 10 33.2 10l3.3 3.3v63.1h-16.6l-3.3 3.3-9.9-9.9h-3.4q-19.9 0-19.9 26.5l-13.3 6.7q-6.6 0-49.8-36.6-33.2 16.6-56.4 16.6l-3.3-3.3v-3.3q0-29.9 33.2-29.9l53.1-23.2 3.3 19.9h6.7l6.6-6.6v-6.7q-10 0-10-6.6 0-9.1 46.5-23.3zm29.9 43.2h-16.6l-6.6 23.2 13.2 6.7q10-15 10-29.9z"/><path class="b" d="m645.7 250.2q-1.1 0.3-2.6 0.5-1.4 0.1-3 0.1-1.6 0-3.1 0-1.5-0.1-2.9 0 1.1-0.3 2.5-0.4 1.5-0.2 3-0.2 1.7-0.1 3.2 0 1.5 0 2.9 0zm76.9-21.8q0 0.4 0.3 0.6 0.2 0.2 0 0.6-0.2 0.2-0.8 0-0.5-0.2-0.7 0.3 0 0.4 0.5 0.3 0.6-0.1 0.4 0.6-0.3 0.3-0.9 0.3h-0.6q-0.2 0.6-1 1-0.7 0.3-1.4 0.8 0 0.2 0.1 0.3 0.2 0.1 0.2 0.3-0.2 0.2-0.6 0.3-0.4 0-0.9 0-1.3 2.2-3.3 3.6-2 1.4-3.6 3-0.4 0.1-0.8 0.2-0.5 0.1-0.6 0.4-1.2 0.9-2.8 1.7-1.6 0.7-3.5 1.4-1.8 0.6-3.7 1.2-1.8 0.6-3.5 1.3 0.2-0.2 0.4-0.4 0.2-0.3 0.5-0.4-3.4 0.6-7 1.8-3.6 1.1-7.7 2 0.9 0.4 2 0.3 1.2-0.1 1.9 0.3-2.7 0-5.7-0.1-2.9-0.2-5.4-0.2-1.1 0-2.5 0.2-1.5 0.1-2.9 0.1-1.8-0.2-3.6-0.3-1.9-0.3-3.5-0.3-2 0-4.1 0.3-1.9 0.2-3.7 0-0.2 1.8 0.2 3.1 0.4 1.2 0.4 2.6-0.5-0.1-1-0.7-0.3-0.6-0.5-1.4-0.1-0.7-0.2-1.6-0.1-0.8-0.1-1.4 0.3 0.3 0.3 0.9 0.2 0 0.1-0.5 0-0.5 0.2-1-2.2 0-3.9 0.2-1.6 0.1-3.6 0.1 0.8-0.3 1.8-0.3 1-0.1 2-0.1 1-0.1 1.9 0 0.9 0.1 1.5 0.1 0.2-0.2 0.1-0.5 0-0.4 0.2-0.4-7.3 0.3-15.3 0.1-8-0.2-15.5 0.3 0.2 0.4 1 0.4 0.9-0.1 1.1 0.1-0.5 0.5-1.1 0.3-0.6-0.2-1.3 0 0 0.6 0.3 0.6 2.2 0.3 5.3 0 3.1-0.3 6.1-0.3-2.2 0.7-5.2 0.7-3 0-6.2 0.2-0.4 1.6 0 3.4 0.4 1.7 0 2.9-0.4-0.4-0.6-1.2-0.1-0.7-0.1-1.5 0-0.9 0-1.7 0-0.9-0.2-1.6-3.2-0.2-6.3 0.1-3.2 0.3-6.5 0.5-0.6 0-0.6-0.9 0-0.2 0.3-0.3 0.4 0 0.9-0.3-1.2 0-2.6-0.2-1.3-0.2-2.2 0.2-0.3 0.7-0.2 1 0.1 0.4-0.2 0.8-0.4 0-0.6 0 0-0.1-0.2-0.3-0.5-0.8 0-1.8-0.4-0.3-1-0.3-0.6 0-1.2 0.1-0.5 0.1-0.9 0-0.3-0.1-0.3-0.7 0.7 0 1.4 0.2 0.7 0.1 1.6 0.1-0.2-0.6-0.8-0.6-0.6 0-1.4 0.1-0.7 0.2-1.4 0.3-0.7 0.1-1.1-0.3v-1q0.6-0.4 1.8-0.2 1.3 0.2 2.7 0.2 0.2-1.1 0-1.5-0.1-0.5 0.6-1.1-0.4-0.3-1.2-0.1-0.7 0.1-1-0.3 0-0.7 0.6-0.7 0.6-0.1 1.6-0.1-0.2-0.5-0.6-0.6-0.4-0.2-0.8-0.4-0.3-0.1-0.7-0.3-0.3-0.3-0.3-0.9 0.4-0.1 1.2 0.1 0.8 0.2 1.4-0.1-0.1-0.1-0.3-0.4-0.2-0.3 0.1-0.8 0.2 0 0.2 0.6 0.5-0.9 0.4-2.1 0-1.3 0-1.7 0.4-0.3 0.3-0.3 0 0 0.3 0.3 0.1-0.4 0.2-1 0.1-0.6 0.4-0.8 0.8 0.1 1 0.8 0.2 0.6 0 1.7-0.1 0.9-0.3 1.9-0.3 1.1-0.1 1.8 3.1 0 5.7-0.4 2.6-0.4 4.4-1.4 0-0.4-0.5-0.2-0.4 0.1-0.4 0 0-1.1 0.9-1 0.8 0 1.5-0.2 0.9-0.3 1.4-1 0.6-0.7 1-1.2-0.2-1.7-0.4-2.9-0.1-1.2-0.8-2.4-0.4 1.3 0 2.4 0.5 1 0.3 2.3-0.7-0.9-0.9-1.9-0.2-1 0-2.8-0.7-0.2-1.4-0.1-0.6 0.1-1 0.1 0-1 0.9-1.1 0.8 0 1.5 0.2 0-0.4 0.1-0.8 0.1-0.6-0.1-1 0.4-0.4 0.3-1.3 0-0.9-0.1-1.8 0-1 0.2-1.7 0.2-0.7 1.1-0.9v-1.5q-0.4 0-1 0.1-0.5 0.1-0.5-0.1-0.2-0.6 0.3-0.7 0.5-0.2 1.2-0.2v-4.4q-0.4 0-0.7 0.3-0.1 0.3-0.8-0.1 0.9-0.9 0.9-2.5 0-1.5 0-2.9 0.2-0.4-0.1-0.3-0.3 0-0.5-0.3 0-0.6 0.4-0.8 0.3-0.3-0.1-1h-1.5q-0.4 0-0.2-0.3 0.2-0.3 0.2-0.5 0.2 0 0.6-0.2 0.5-0.2 0.9-0.2-0.4-4.9-1-11-0.5-6.1-0.8-12.3-0.2-0.2-0.8 0-0.5 0.2-0.7-0.2 0-0.5 0.6-0.6 0.5-0.1 0.9-0.4-0.2-4.5-0.3-9.8 0-5.3 0-10.5 0.6 0.4 0.4 1.3-0.3 0.7-0.1 1.4 0.3 0.2 0.9 0.1 0.8-0.1 1.2-0.1-0.2-1.4-0.1-2.6 0.3-1.4 0.1-2.8-0.4 0-0.7-0.1-0.3-0.2-0.5-0.2-0.2 0.4-0.1 1.2 0.1 0.8 0.1 1.2-0.6-0.7-0.5-2 0.2-1.4 0.2-2.5 0.2 0 0.2 0.5-0.1 0.6 0.1 1 0.6-0.4 0.5-1.3 0-0.9 0.4-2.3-0.7 0-1 0.2-0.2 0.1-0.2 0.7-0.4-0.2-0.3-0.4 0.2-0.2 0-0.5-0.2 0.9-0.3 2.2 0 1.3 0 1.7-0.4-0.2-0.3-0.6 0-0.4 0-0.6-0.2-2.7 0-5.9 0.3-3.1 0.3-6 0-0.8-0.1-1.8 0-1-0.2-1.9-0.1-0.9-0.6-1.5-0.4-0.6-1.2-0.6-0.2 0-0.5 0.2-0.1 0.2-0.4 0.2-1-0.1-2-0.6-1.1-0.5-2.2-1-1.1-0.5-2.2-1-1.1-0.4-2.2-0.4-1 0-1.6 0.4-0.6 0.4-1.1 1-0.5 0.5-1 1.2-0.4 0.6-1.1 1-0.4-0.4-0.5-0.7-0.1-0.4 0-0.9 0.1-0.5 0.3-1 0.2-0.5 0.2-1-0.4 0-0.8-0.2-0.3-0.2-0.7 0.2-0.5-0.9-0.9-1.5 1-0.5 2 0 0-0.5 0-0.6-0.1-0.3-0.6-0.3 0-0.4 0.3-0.4 0.3-0.1 0.3-0.5-0.2-0.5-0.8-0.5-0.6 0-1.3 0-0.6 0.1-1.1 0.1-0.5-0.1-0.6-0.5 0.7-0.4 1.8-0.2 1.1 0.1 2-0.1-0.1-1.1-0.2-1.6-0.1-0.4-0.4-1.1-1.3 0-2.3 0.1-1.1 0.1-2.4-0.1 0-0.7 0.5-0.8 0.5 0 1 0 0.6 0.1 1.1 0.2 0.6 0 1-0.3 0.2 0 0.6 0.2 0.4 0.2 0.5-0.2 0.5-0.2 0.4-1 0-1 0-1.7 0.4 0 0.8-0.2 0.3-0.3 1.2-0.1 0.3 0.4 0.4 0.9 0.1 0.5 0.2 1.2 0.5-0.2 0.4-1-0.1-0.8 0.6-0.8 0.3-0.1 0.4 0.2 0.1 0.3 0 0.8 0 0.4-0.1 0.9-0.1 0.4-0.1 0.8 4.4 0.2 8.2 0.1 3.9-0.1 8-0.1-0.2-1.8-0.4-3.5-0.3-1.8 0.1-3.4 0.6-0.2 0.5 0.7 0 0.9-0.2 1.1 0.2 1.1 0.2 2.4 0.1 1.3 0.1 2.7 3.4 0.1 6.9 0 3.4-0.2 6.9-0.4 3.6-0.3 7.3-0.4 3.8-0.2 7.9-0.1 0.3-0.7 0.1-1.3-0.2-0.7-0.4-1.7 0-1.6 0-3.1 0-1.7 0.6-2.6 0.5 1.4 0.4 3.5 0 2.1 0.2 4.3 0.2-1.4-0.1-2.8-0.1-1.5 0.1-2.9h1.2q0.5 1.4 0.3 3.5-0.1 1.9 0.3 3.1 2.3-0.2 4.6-0.4 2.5-0.2 5-0.2 1.5 0 3.1 0.3 1.6 0.2 3.1 0 1.2-0.2 2.3-0.4 1.1-0.2 2.3-0.2 3.6-0.2 7 0.3 3.4 0.5 7 1.2 4.5 0.4 9 1.3 4.5 0.9 8.1 2.9 4.1 1.5 7.2 3.8 3.2 2.1 5.9 4.8h1.2q0.3 0.4 0.3 1 4.8 3.8 8.9 8.8 4.1 4.9 7.2 10.6 1.2 2 2.4 4.6 1.3 2.5 1.6 4.9 0.1 3.9 0.4 7 0.3 3 1 6.5-0.4 2.5-0.2 5.4 0.4 2.9 0 5.7 0.1 0 0.4 0.1 0.4 0.2 0.4 0.5 0 0.2-0.4 0.4-0.4 0.1-0.8-0.1 0 0.7-0.2 1 0 0.4 0 0.8 0.4 0.4 1.1 0.3 0.7-0.1 0.7 0.3-0.3 0.9-0.9 0.8-0.6-0.2-1.3-0.2 0 0.4 0.3 0.7 0.2 0.2 0.1 0.2-0.7 2.2-1.6 4.1-0.7 1.8-1.2 4 0 0.4-0.1 0.2-0.2-0.2-0.5-0.2-0.1 0.1-0.2 0.6-0.1 0.4-0.4 0.8 0.3-0.1 0.5 0 0.1 0.1 0.1 0.4 0.3 0 0.2-0.2-0.1-0.3 0.2-0.4 0.1 0.1 0.1 0.7-0.1 0.6-0.1 0.7-0.3-0.4-0.7-0.1-0.4 0.4-0.9 0.1-0.4 0.7 0 0.8 0.5 0.1 0.4 0.8-1 0-1.5 0.6-0.4 0.4-0.7 1-0.4 0.5-0.7 1.2-0.3 0.6-0.7 1 0.2 0.3 0.5 0.4 0.3 0.1 0.3 0.5 0 0.5-0.4 0.6-0.3 0-0.8 0-0.4 0.5-0.9 1.1-0.4 0.5-0.3 0.7-1.1 1.6-3 3.6-2 2-3.8 3.6zm-53.6-96.9q-0.4 0-0.7-0.2-0.3-0.4-0.7-0.4h-3-9.6q-0.7 0-1.6 0-0.9-0.1-1.4 0.6 2.8 0.1 6.5 0.3 3.8 0.1 7.8 0.1 4.1 0.1 8 0.2 4 0 7.3 0-1.5-0.3-3.2-0.3-1.6-0.1-3.2 0-1.6 0.1-3.2 0.1-1.5 0-3-0.4zm-28.1 0q0.9-0.1 2.1 0 1.3 0 2.5 0.1 1.2 0 2.3 0 1.2-0.1 1.8-0.4-2.2 0.2-4.3 0.1-2.2 0-4.4 0.2zm-34.7 0.3q-1.3-0.2-1.2 0.1 0.3 0.1 1.2-0.1zm75.4 0.6q1.2 0.2 1.4-0.1 0.2-0.4-1.4 0.1zm-57.1 0.3q-0.9 0.2-2.2 0.2-1.3 0-1.7 0.4 3.8 0.2 7.6 0.1 3.8-0.1 7.7-0.1 3.6 0.2 7.1 0.4 3.6 0.1 6.9-0.1v-1.2q-2.7 0-5.9 0-3.2-0.1-6.5-0.1-3.3 0-6.7 0.1-3.3 0.1-6.3 0.3zm27.5 0.3v0.9q3.9 0.2 7.5 0.3 3.6 0 7.1 0 4.2-0.1 8.2 0.1 3.9 0.1 7.8 0.4 4 0.1 7.8 0.3 3.9 0.2 7.9 0.1-2.5-1-5.3-1.4-2.9-0.6-5.9-0.6-2.9-0.2-5.8-0.1-3 0-5.9 0-5.7-0.2-11.7-0.4-6-0.2-11.4-0.2-0.3 0-0.3 0.6zm-43.4 0.3q-0.1-0.2-0.2-0.4-0.1-0.2-0.4-0.2-0.4-0.2-0.9-0.1-0.4 0.1-0.9 0.1-1.1 0.2-2.2 0.1-1.1-0.1-1.4 0.8 1 0.2 1.5 0 0.5-0.3 0.9-0.3 0.4 0.3 1.3 0.4 1 0 2 0 1.1-0.1 2-0.2 1-0.1 1.3-0.2-0.9-0.2-1.5-0.1-0.5 0.1-1.5 0.1zm7.2 0q0.7 0 1.6 0.2 1 0.2 1.4-0.5-1 0-1.6 0.1-0.7 0-1.4 0.2zm-11.4 1.2q-0.4 0-0.6 0.2-0.3 0.1-0.6 0.4 3.2-0.3 7 0.1 3.7 0.3 7.1-0.1 0.2 0 0.5-0.1 0.5-0.1 0.7-0.5-1.7 0-3.6-0.1-1.9-0.1-3.8-0.1-1.9 0-3.6 0-1.7 0-3.1 0.2zm43.7 0.6q-6.8 0-13.5-0.2-6.8-0.2-13.7-0.4l-0.3 0.3v0.3q7.8-0.3 14.9 0.3 7 0.5 14.1 0.3 0-0.7-0.6-0.6-0.5 0-0.9 0zm51.4 0.6q-0.6-0.3-1.2-0.1-0.4 0.2-0.8 0.4-4.5 0.2-8.6 0-4.1-0.4-8.2-0.6-4-0.4-8.1-0.5-4-0.1-8.4 0.5 10.2 0 20 0.9 9.7 0.9 18.9 0.9-1.1-0.2-1.8-0.8-0.6-0.7-1.8-0.7zm-47.5-0.3v0.6q1.6-0.2 2.6 0 1 0.1 2.2-0.3-1.4-0.3-2.6-0.2-1.2 0.1-2.2-0.1zm-47 0.9q3.5 0.2 6.4 0.9 2.9 0.6 6.5 0.6 0-0.5 0.1-0.7 0.2-0.4 0.2-0.8-3.6-0.3-6.5-0.3-2.8 0-6.7 0.3zm42.8 0.3q-4.5-0.2-9.3-0.5-4.8-0.2-9.5 0.2 2.4 0 4.6 0.2 2.2 0.1 4.4 0.3 2.3 0.1 4.7 0.1 2.4 0 5.1-0.3zm28.8 1.5h7.1q5.4 0.4 11.1 0.6 5.7 0.2 11.3 0-2.7-0.9-5.8-0.8-3 0.1-6.1-0.1-7-0.5-14-1-6.9-0.5-14.2-0.5h-0.2q2.2 0.9 4.9 1.3 2.9 0.2 5.9 0.5zm-29.4-0.3h-5.9q-2.4-0.1-4.7-0.3-2.3-0.2-4.8-0.3-2.4-0.2-5.1-0.4-2.6-0.2-5.8-0.5-0.2 0.2-0.1 0.8 0 0.6-0.2 1 3.1 0.1 6.1 0.3 2.9 0 5.8 0.2 2.9 0.1 5.8 0.2 3 0 6.2-0.1 0.4 0 0.2-0.3-0.3-0.3 0.2-0.3 0.4 0 1.1 0.1 0.8 0 1.2-0.4zm5.1-1.2q0.4-0.2 1 0.1 0.7 0.3 1.1-0.1-0.2 0-0.7 0-0.3-0.1-0.7-0.1-0.4 0-0.6 0-0.2 0-0.1 0.1zm-49.7 1.2v0.9q0.5-0.3 0.9-0.3 0.4-0.1 0.7-0.3-0.4-0.3-0.8-0.3-0.3 0-0.8 0zm12.6 0.6q0.9 0.2 1.5 0.6 0.6 0.3 1.2 0.3v-0.9q-0.6 0.2-1.3 0-0.7-0.2-1.4 0zm16.5 0.9q-2.7 0-5.4-0.3-2.6-0.3-5.1-0.3-0.2 0.4-0.3 0.8 0 0.2 0 0.6 5 0.3 9.8 0.3 4.8 0 10-0.3 1.5 0 3.2 0.1 1.7 0 2.4-0.7-4.3 0-7.9 0-3.5 0-6.7-0.2zm73.8 0.2q-3.2 0.3-6.9 0.1-3.7-0.1-7.6-0.3-3.9-0.3-8-0.4-4.1-0.2-8 0.1 0.7 0.2 1.4 0.5 0.8 0.4 1.5 0.6 0.9 0.2 1.6 0.2 0.9 0 1.8-0.4 2.8 0.7 5.8 0.8 3 0 5.9 0 4.3 0 8.5 0.1 4.3 0.1 8.8-0.3-1.4-1-2.5-1-1.1 0-2.3 0zm-20.9 6.6q-1-0.7-2.2-1.3-1.3-0.7-2-0.7 0.4 0.4 1.3 0.7 0.8 0.4 0.8 1.1-2.4-1.8-4.8-2.8-2.3-0.9-5.1-2 1.8 0.2 3.6 0.9 1.9 0.8 3.9 1.5-1.2-0.7-2.3-1.5-1-0.7-2.8-0.9-0.9-0.7-2.1-0.9-1.2-0.2-2.3-0.1 0.1 0.5 0.8 0.4 0.8-0.1 1.2 0.6-1.9 0-3.7-0.6-1.6-0.7-3.1-1-0.4-0.1-1.1 0-0.6 0.2-1-0.2-0.7 0.4-1.8 0.6-0.9 0.1-1.8 0.2 0.2-0.4 0-0.4-0.2 0-0.6-0.4 0.4 0.2 1 0.1 0.7-0.2 1.1-0.4-0.7-0.2-1.7 0-0.9 0.3-1.9 0.3-0.3-0.3-0.9-0.3-0.6-0.2-1.3-0.2-0.6 0-1.1 0.2-0.5 0.1-0.6 0.5 0.4 0.3 0.7 0.2 0.5-0.1 0.7-0.1 0.4-0.1 0.7-0.1 0.4 0 0.9 0.4h-2.7q-0.7 1.5-0.8 3.3-0.1 1.7-0.1 3.5 0 6.6-0.3 13-0.1 6.3 0.3 12.5 0.9 0 0.9 0.8 0 0.3-0.3 0.2-0.4-0.1-0.6 0.2 0.2 5.1 0.2 10.5-0.1 5.3 0.1 10.7 0.2 4.8 0.4 9.4 0.2 4.6 0.2 9.1 0 1.2 0.1 2.2 0.2 1.1 0.2 2 0 0.7-0.4 1.4-0.2 0.7-0.2 1.3 0 1.2 0.1 2.4 0.1 1.2-0.4 2.4 0.3 1.8 0.3 3.3 0 1.3 0 2.6 0.1 1.3 0.2 2.7 0.3 1.3 1 2.8 0.7 0 1.2 0.6 0.5 0.5 0.9 0.2-0.2 0-0.3-0.3 0-0.3 0-0.5 1.2-1.4 3.1-1.6 2-0.3 3.8-0.5 4.3-0.7 8.3-1.3 4.1-0.7 8.4-1.4-2.7 0.8-5.4 1.2-2.8 0.4-5.5 0.8-2.6 0.3-5.4 0.8-2.6 0.5-5.2 1.4-0.4 0.2-0.8 0.5-0.5 0.3-0.7 0.9 2.2 0.7 4 0.2 1.9-0.6 3.5-1 3.2-0.7 6.1-1.3 2.9-0.7 5.9-1.1-1.8 0.9-3.6 1.2-1.6 0.2-3.4 0.9 0.1 0.3-0.1 0.5 0 0.2-0.3 0.5-0.3 0.1-0.4 0.4-0.2 0.3 0 0.7 0.7 0.2 1.3 0.1 0.6-0.2 1.1 0.5 0.1-0.3 0.7-0.4 0.6-0.1 0.5 0 3.3-1.1 6.1-2.8 2.9-1.8 6.1-3.1 1.6-1.6 3.1-2.5 1.5-1 2.9-2.3 1.1-1.2 1.8-2.7 0.7-1.5 1.3-3 0.6-1.7 1.2-3.3 0.6-1.7 1.4-3.2 0.7-1.8 1.6-3.2 1-1.4 1.4-3.2-0.3 0-0.6 0.1-0.4 0.1-0.4-0.3v-0.6q0.5 0.2 0.8 0 0.4-0.3 0.8 0 0.2-0.7 0.3-1.4 0.3-0.7 0.3-1.4-0.3-0.1-0.8 0-0.5 0-0.8-0.2 0-1 0.7-1 0.8 0 1.5-0.2 0.1-0.9 0.1-2.1 0-1.2-0.5-2.1 0.3 0.4-0.1 0.8-0.2 0.3-0.5 0.1 0-1.2 0.3-2.3 0.2-1.2 0.7-2.2 0.2 0 0.2 0.2v0.1q0-0.5 0.1-1 0.1-0.6 0.5-0.8-0.1 0.7-0.1 1.2 0 0.4 0 0.7 0 0.2 0 0.5 0 0.1 0.1 0.6 0.3-1.4 0.6-2.8 0.5-1.3 0.6-2.9-0.4 0-0.9 0.1-0.5 0.1-0.5-0.1v-0.9h1.4q0-0.4-0.1-0.7 0-0.3 0.1-0.8-0.1-0.2-0.7-0.1-0.4 0-0.1-0.5 0-0.6 0.8-0.6v-1.5q-0.1 0-0.5 0.1-0.2 0.1-0.1-0.4v-0.3q0-0.4 0.4-0.3 0.3 0 0.6-0.3-0.3 0-0.3-0.4 0.1-0.4-0.3-0.4 0-3-0.5-5.5-0.6-2.5-0.7-5.7-0.7-0.1-1.3 0-0.6 0.2-0.9-0.2 0-0.4 0.1-0.4 0.2-0.2 0.5-0.2 0.3 0 0.6 0 0.4-0.1 0.6-0.4 0-0.1-0.1-0.6-0.1-0.4-0.1-0.8 0-0.3-0.5-0.2-0.5 0-0.5-0.4 0-0.4 0.5-0.3 0.4 0 0.1-0.6 0-0.5-0.5-0.7-0.5-0.4-0.1-0.8-0.6 0.3-0.9 0.9-0.2 0.5-0.3 1.2 0 0.6-0.1 1.3-0.1 0.7-0.5 1.4 0-1.8 0.5-3.3 0.4-1.4 1.1-2.1 0.2 0.2 0.1 0.3 0 0 0.1 0 0-1-0.3-1.7-0.3-0.6-0.5-1.3-0.7 0-1 0.1-0.3 0-0.6-0.4 0-0.2 0.4-0.4 0.3-0.2 0.6-0.2 0.2-0.4 0.1-0.5-0.1-0.2-0.1-0.4-0.4-0.2-1.2 0.1-0.8 0.1-1.2-0.1 0-1 0.5-0.9 0.6 0 1.3 0 0.2-0.7-0.3-0.8-0.3-0.2-0.3-0.4 0-1.3-0.9-2.2-0.8-0.9-1.2-2-0.5 0-1 0.1-0.5 0-0.5-0.4 0.2-0.4 0.3-0.6 0.1-0.2 0.6 0-0.5-1.4-1.5-2.4-0.4-0.1-1 0-0.6 0-1.2 0.1-0.5 0.1-1 0.1-0.5-0.1-0.7-0.5 0.2-0.2 0.6-0.4 0.3-0.2 0.3-0.5 0.2 0.3 0.8 0.2 0.6-0.2 1-0.2-0.3-0.7-0.9-0.8-0.5-0.1-0.9-0.4 0-0.8-0.5-1.2-0.4-0.5-1.1-0.8-0.7-0.3-1.5-0.4-0.7-0.1-1.1-0.2 0-0.5 0.1-0.5 0.1-0.1 0.2-0.1-1-1-2.1-1 0.2-0.1 0-0.2-0.1-0.1-0.3-0.4zm-16.2-7.1q-0.1-0.2-1-0.2-0.8 0-1 0.2 0.4 0 1 0.1 0.6 0.1 1-0.1zm-16.1 0.9h0.9q-0.2-0.3-0.1-0.4 0.1-0.3 0.1-0.5h-1.2q0 0.2 0.1 0.5 0.2 0.1 0.2 0.4zm-40.1 0q-0.2-0.3-0.5-0.4-0.3-0.1-0.3 0 0 0.3 0.4 0.5 0.4 0.1 0.4-0.1zm35 0.2q0.5-0.1 1.2 0 0.6 0.2 0.6-0.2-0.4-0.4-1-0.2-0.6 0.3-0.8 0.4zm6 0.6q-0.2 0-0.2-0.2 0.1-0.3-0.4 0v0.2q0.2-0.1 0.3 0.1 0.1 0.2 0.3-0.1zm-28.7 1.6q4.3 0.2 8.1 0.1 4-0.1 8.1-0.1 0.4-0.4 1.3-0.7 1-0.3 0.7-0.5-1.8 0-4 0.1-2.1 0-4.5 0-2.3 0-4.8 0-2.4 0-4.6-0.1-1 0-2-0.1-0.9-0.1-1.9 0.3 0.1 0.5 0.5 0.7 0.5 0.2 1 0.3 0.5 0.1 1.1 0.1 0.6-0.1 1-0.1zm21.5-0.6q-0.2 0-0.5 0.1-0.4 0-0.4 0.1 0.7 0 1.2 0 0.5-0.1 1.2-0.6-0.4-0.1-0.8 0.1-0.2 0.3-0.7 0.3v-0.6q0.5 0 0.6 0.1 0.1 0 0.3-0.5-2.7 0-4.4 1.2 0.4 0 1.1 0.2 0.7 0.1 0.9-0.2v-0.6q0.7 0.3 1 0 0.3-0.3 0.5 0.4zm1.5 0.2q0.4-0.1 0.6 0.1 0.2 0.2 0.6-0.1v-0.6q-0.2 0.3-0.8 0.3-0.6-0.1-0.4 0.3zm35.3 0q-0.2-0.6-1.1-0.8-0.9-0.3-1.6 0 0.7 0.2 1.2 0.5 0.6 0.3 1.5 0.3zm1.2 0.4q7.3 0.2 14.6 0.4 7.4 0.3 14.4-0.2-0.6-0.6-1.4-0.8-0.8-0.3-1.6-0.3-0.8 0-1.7 0.2-0.8 0.1-1.6 0.1-5.6-0.3-11.6-0.4-5.9 0-12-0.2h-0.1q-0.2 0-0.2 0.2 0.4 0.3 0.7 0.5 0.3 0.1 0.5 0.5zm-66.7 1.4q0.5-0.4 0.4-0.9 0-0.6-0.7-0.9 0 0.5 0 1.1 0.1 0.6 0.3 0.7zm22.2-0.8h-0.4q-3.3 0.4-7.2 0.3-4-0.1-7.1-0.1-0.5 0-1.2 0-0.7 0-0.9 0.4 0.4 0.7 1.2 0.7 0.8-0.1 1.5-0.1h13.1q0-0.4 0.7-0.7 0.7-0.3 0.3-0.5zm2.6 0.6v0.2q0.4 0 1.3 0 0.9 0 2 0 1-0.1 1.9-0.2 1.1-0.1 1.7-0.4-0.6-0.3-1.7-0.3-0.9-0.1-1.9 0.1-1.1 0.1-2 0.3-0.9 0.2-1.3 0.3 0.3-0.3 0.4-0.4 0.2 0 0.2-0.2-0.7-0.3-1 0-0.4 0.2-1 0 0 0.4-0.4 0.6-0.3 0.2-0.6 0.6 0.7 0 1.3-0.4 0.7-0.5 1.1-0.2zm10.8 10.4l-0.3 0.3q0.2-2.9 0.2-5.4 0-2.6-0.2-5.9h-1.2q0.2 1.5 0.2 2.6 0 1.1 0.4 2.8-0.4-0.5-0.4-0.1 0.1 0.2 0.1 0.7 0.2 0.1 0.4 0.1 0.3-0.1 0.5 0.1-0.2 0.3-0.5 0.1-0.2-0.2-0.4-0.3 0 3.1-0.1 6.1 0 3 0.4 5.2 0.2-1.6 0.2-3.3 0-1.8 0.7-3zm35.6-9.6q1.6 0 3.5 0.3 2 0.2 4 0.3 3.8 0 8.8-0.1 5-0.1 10.9-0.1-1.1-1.4-3.2-1.3-1.9 0.1-4 0.1-6.1 0-12-0.2-5.8-0.2-11-0.2 0.5 1 1.1 1.1 0.7 0 1.9 0.1zm-70.6-1.2v1q0.2 0 0.5 0.1 0.4 0 0.4-0.1-0.4-0.3-0.4-0.6 0-0.4-0.5-0.4zm21.6 1.6q-0.7 0.1-1.6 0.7-0.7 0.6-0.6 0.7h11.4q0-0.4 0.2-1.1 0.2-0.7-0.5-0.7-0.7 0.2-1.9 0.2-1.2-0.1-2.5-0.1-1.2 0-2.5 0-1.2 0-2 0.3zm-16.5 0.2q0 0.5-0.5 0.7-0.3 0.2-0.1 0.9 1.7 0 3.1 0 1.6-0.1 3.1-0.2 1.6-0.1 3.2-0.1 1.7-0.1 3.7-0.1 0.1-0.1 0.5-0.2 0.4-0.3 0.7-0.5 0.4-0.1 0.5-0.3 0.2-0.2-0.1-0.2v-0.2q-3 0.1-6.9 0.2-3.8 0-7.2 0zm-1.2 1.6q-0.4-0.3-0.2-0.9 0.4-0.7-0.1-0.7-0.2 0-0.2 0.8 0.1 0.8 0.5 0.8zm-4.8 4.8q0.3 0.1 0.1 0.6-0.2 0.5 0.2 0.2 0-0.2 0-0.5 0-0.3-0.3-0.3zm0.6 1.4q-0.2 0-0.3-0.1 0-0.1-0.3-0.1 0.3 0.9 0.1 1.7-0.2 0.7 0.2 0.9 0.2-0.2 0-0.9-0.1-0.6 0.3-0.9v1.8q0.9 0 1.2-0.3-0.2-1.2-0.1-1.8 0.1-0.5 0.1-1.5-0.2 0-0.4 0.1-0.2 0.1-0.2-0.3 0.7-0.5 0.6-1.5 0-1 0-2.1-1 0-0.6-1 0-0.1 0.3-0.1 0.4 0 0.6-0.1v-1.6h-1.2q-0.6 2.1-0.5 4 0.2 2 0.2 3.8zm71.5-6.8q2.7 0.1 4.9 0.1 2.2 0 4.9 0.1 1.8 0 3.8-0.1 2.1-0.3 3.4 0.1 0.7 0.3 0.4 0.3-0.1 0 0.6-0.3 2.2-0.4 5-0.1 2.9 0.4 5.4 0.1-1-0.7-2.2-0.7-1.2-0.1-2.6-0.1-6.1 0-12.1 0.3-6 0.4-12.1-0.3 0 0.4 0.3 0.4 0.3-0.1 0.3 0.2zm20.4 0.8q-4.8 0.3-9.8 0.1-4.9-0.2-8.8-0.1 0.4 1 1.3 1.1 0.8 0 2-0.1 6.5 0 12.9 0.3 6.4 0.3 12.5 0.3-0.4-0.8-1.5-1.1-1.1-0.4-2.6-0.5-1.4-0.1-3.1 0-1.5 0-2.9 0zm-85 0.6q-0.2 0-0.7-0.1-0.3 0-0.7 0-0.4 0-0.7 0.3-0.3 0.2-0.3 0.8 2.2 0.4 4.8 0.3 2.6-0.1 5-0.1 2.4 0.2 4.5 0.2 2 0 4 0 2.1 0 4 0.1 2.1 0 4.3 0.1v-2.2q-5.4 0.3-11.8 0.4-6.3 0.1-12.4 0.2zm70.6 3q0-0.4-0.4-0.7-0.4-0.3 0.1-0.7 0.2 0.4 0.4 0.6 0.2 0.3 0.2 0.6 3.1-0.3 6.2-0.2 3.1 0.1 6.3 0.2 3.3 0.2 6.8 0.4 3.6 0.2 7.6 0.2-0.5-1.1-1.4-1.5-0.9-0.4-2-0.4-1.1-0.1-2.4 0-1.2 0.1-2.3 0.1-2.2 0-4.8 0-2.7-0.1-5.4-0.2-2.8-0.1-5.5-0.1-2.7-0.1-5.2-0.1 0.2 0.7 0.6 1 0.5 0.4 1.2 0.8zm-49.6-0.8q-5.3-0.3-10.4-0.1-5.1 0.1-10.3 0.1-0.7 0-1.7 0-0.9-0.1-1.3 0.6 0.4 0.6 1.2 0.5 0.7-0.3 1.2-0.3 0.7 0 1.2 0.2 0.5 0.2 1.2 0.2 3.8 0.1 7.4 0.2 3.7 0 7.5 0 1.8 0.3 4 0.4 2.2 0 3.5-0.6-0.4-1.2-1.6-1.2-1.1 0-1.9 0zm72.9 1.8q-5.2-0.3-10.9-0.6-5.7-0.2-11.5 0.2 0 0.4 0.2 0.6 0.3 0.2 0.1 0.6 6.7 0.3 13.4 0.7 6.8 0.3 14.7 0.5-0.3-0.8-0.8-1.3-0.6-0.5-1.4-0.6-0.9-0.1-1.8-0.1-1 0-2 0zm-96.3 0q-0.2 0.1-0.4 0.6-0.1 0.4 0.1 0.8 3 0.3 6 0.3 3 0 6.9 0 3.1 0 6.6 0.3 3.5 0.2 6.2-0.3 0.3 0 0.9 0 0.8 0 0.6-0.9-2.7-0.2-6.1-0.3-3.4-0.2-7.1-0.2-3.7-0.1-7.3-0.2-3.5-0.1-6.4-0.1zm96.9 2.6q-1.3-0.2-2.6-0.2-1.3-0.1-2.5-0.1-4.3-0.2-8.7-0.3-4.5-0.2-8.1 0 0.3 0.4 1.2 0.7 0.9 0.2 1.6 0.2 1.8 0.2 3.9 0.3 2.2 0 4.5 0 4.2 0.4 8.7 0.7 4.4 0.2 9.2 0.2-0.4-0.7-1.3-1.1-0.8-0.3-1.8-0.4-0.9-0.1-2 0-1.1 0-2.1 0zm-95.7 0q-0.2 0-0.4-0.1-0.3-0.1-0.6-0.1-0.3 0-0.4 0.2-0.2 0.2-0.1 0.6 3.4 0.3 6.9 0.3 3.6 0 7.4 0.6 1.7-0.3 3.1-0.3 1.5-0.1 2.9 0 1.5 0 3.1 0.1 1.7 0.1 3.8-0.1-0.2-0.4 0-0.9 0.1-0.4-0.3-0.6-2.5 0.3-5.8 0.3-3.3-0.1-6.8-0.1-3.5-0.1-6.9-0.1-3.3-0.1-5.9 0.2zm29.6 3.6q-0.2-0.7-0.2-1.5 0.1-0.9-0.1-0.9 0 0.4 0 1.5 0.1 0.9 0.3 0.9zm71.2-1.5h-3.6q-2.3 0-5.1-0.1-2.6-0.3-5.5-0.5-2.8-0.2-5.8-0.2-2.9-0.1-5.8 0.2 0.5 0.7 1.6 0.8 1.1 0.1 2 0.1 3.5 0.3 6.3 0.3 2.7 0 5.4 0 2.7 0 5.8 0 3.1 0 7.4 0-0.4-0.6-1.3-0.5-0.8 0.1-1.4-0.1zm-102.3-0.3v1.5q2.7 0 5.8 0 3.1-0.2 5.5 0 3 0 6.2 0.1 3.2 0.1 6.2-0.1 0.3 0 0.8 0.1 0.6 0.1 1.1 0.1 0.5 0 0.9-0.2 0.4-0.4 0.4-1.2-2.5 0-5.8-0.1-3.3-0.2-6.8-0.2-3.6-0.1-7.4-0.1-3.7 0-6.9 0.1zm-2.4 1.5q-0.4-0.2-0.2-0.7 0.4-0.5-0.1-0.8 0 0.4-0.2 1.1-0.2 0.6 0.5 0.4zm2.4 0q0-0.2-0.2-0.4-0.1-0.2-0.1-0.5 0 0.3-0.1 0.6 0 0.3 0.4 0.3zm77.5 0.3q4.7 0.4 9.2 0.6 4.6 0.1 9.6 0.3 0-0.4-0.5-0.2-0.5 0.1-0.7-0.4 2.7-0.2 5.8 0.3 3.1 0.4 5.6 0-0.2-0.4-0.8-0.6-0.6-0.3-1-0.3-2-0.2-4.2 0.1-2.3 0.4-4.5-0.1-4.3 0.5-8.9 0.2-4.5-0.2-9.6-0.5h-0.4q0.4 0 0.4 0.6zm-75.1 0.6q-0.7 0-1.7-0.1-1-0.1-1 1 6.5 0.7 13.6 0.9 7.1 0.1 13.6 0.3 0-0.4 0.1-1.2 0.2-0.7-0.1-1.2-6.5 0.5-12.4 0.3-5.8-0.2-12.1 0zm28.4 2.1q0.1 0.1 0.1-0.1 0.1-0.4 0.1-0.8 0-0.5-0.1-1 0-0.4-0.1-0.5 0 0.5-0.2 1.3-0.2 0.9 0.2 1.1zm-33.8-1.2q0.4 0.2 0.4-0.3 0.1-0.6-0.1-0.6-0.3 0.3-0.3 0.9zm31.1 1.2q-0.2-0.4 0.1-1 0.2-0.6-0.4-0.8 0 0.5 0 1 0.1 0.4 0.3 0.8zm50.8 0q1.8 0 3.9 0.1 2 0 3.7-0.4 0.9 0.7 1.9 0.8 1.1 0.1 2.5 0.1 3.8-0.2 7.9-0.3 4.1-0.1 6.8-0.3 0.4 0 1.1-0.1 0.7 0 0.7-0.5-6.8-0.2-14-0.5-7.2-0.2-15.3-0.7 0.2 0.7 0.4 1.1 0.3 0.3 0.4 0.7zm-55.2 0.6q-3.1 0-6.4-0.1-3.2-0.1-6.4-0.3-3.1-0.2-6-0.2-2.9-0.1-5.2 0 0.1 0.5 0.5 0.5 0.5 0 0.9-0.2 0.5-0.2 0.8-0.3 0.5-0.1 0.5 0.3-0.2 0.4-0.8 0.3-0.6-0.1-0.4 0.3 6.7 0.4 12.8 0.4 6.1-0.1 12.9-0.1-0.7-0.7-1.6-0.6-1 0-1.6 0zm81.6 0q-5.7 0.2-12.6 0.5-6.8 0.1-13.2 0.1 1.1 0.5 2.6 0.5 1.4 0.1 3.1 0.1 1.6-0.1 3.2-0.1 1.6 0 3.1 0.4 3.6-0.4 7.9-0.3 4.3 0.2 9.4 0 0-0.7-0.3-0.9-0.3-0.3-0.9-0.4-0.5 0-1.1 0-0.6 0.1-1.2 0.1zm-75.4 1.8q0.2 1.6 0.2 3 0 1.4 0.4 3 0 0.4-0.3 0.4-0.2 0 0 0.5 0.3 0.1 0.2 0.6 0 0.3 0 0.7 0 0.5 0.1 0.9 0.2 0.4 0.6 0.5 0-3-0.1-6.2 0-3.1-0.2-4.9 0 0.2-0.2 1-0.2 0.7-0.4 1.1 0-0.2 0-0.4 0.1-0.2-0.3-0.2zm-8-0.6q-4.4 0.2-9.2 0.1-4.8-0.1-9.1-0.1-1.1 0-2.2 0-1-0.1-1.7 0.6-0.2 0.4 0.2 0.4 0.5 0 0.1 0.5 5.6 0.2 12.1 0.2 6.5 0 12.4-0.2 0.7-0.2 1.5-0.2 0.9-0.1 0.9-1-1.1-0.4-2.4-0.4-1.3 0.1-2.6 0.1zm6.2 0.9q0-0.2 0.1-0.5 0.1-0.4-0.4-0.4 0.2 0.2 0.1 0.5 0 0.4 0.2 0.4zm79.5 0q-2.7-0.5-4.7-0.3-2.1 0.2-4.8 0-1.7 0.3-4 0.2-2.1-0.1-4.4-0.2-2.3-0.1-4.5-0.1-2.2 0-3.9 0.4 0.4 0.6 0.9 0.8 0.6 0.2 1.2 0.3 0.7 0 1.3-0.1 0.7-0.1 1.4-0.1 3 0 6.5 0.2 3.5 0.1 6.7 0.1 0.4 0 0.9-0.1 0.5-0.2 1.2-0.2 2.5 0 4.6 0.2 2.2 0.2 3.8-0.5-0.3-0.5-1-0.5-0.7-0.1-1.2-0.1zm-26.5 0.9q0-0.4-0.4-0.7-0.3-0.3-0.6-0.5 0 0.2 0.3 0.7 0.2 0.5 0.7 0.5zm-81.4 0.6v0.9q0.5 0.7 1.2 0.5 0.9-0.3 1.8-0.5 4.5-0.2 9.6-0.1 5.1 0 9.8-0.2 1.4 0 2.7 0 1.4 0 1.8-0.9-6.3 0-13.5 0.1-7.1 0.2-13.4 0.2zm110.7 0.3q-6.2-0.2-13.3-0.2-7.1 0-14.8 0.2 0.1 0.7 0.8 0.6 0.8-0.2 1.2 0 0.4 0 0.7 0.1 0.3 0.2 0.5 0.2 0.4 0.2 0.9 0.1 0.5-0.1 0.9-0.1 5.4 0.2 11.5 0.4 6.3 0.1 12.2-0.1 0.2-0.5-0.3-0.5-0.3 0-0.3-0.7zm-29.1 0.6q0.5 0 0.4-0.5-0.1-0.4-0.4-0.4-0.1 0.2-0.1 0.4 0.1 0.3 0.1 0.5zm32.3 0.9q-0.1-0.2-0.4-0.4-0.3-0.3-0.4-0.5 0 0.2 0.3 0.5 0.4 0.2 0.5 0.4zm-91.5-0.3q-0.2 0-0.4-0.1-0.3-0.2-0.4-0.2-4.1 0.2-9.1 0.4-4.9 0.3-9.8 0.5-0.7 0-1.6 0-0.8-0.1-0.8 0.3 0.2 0.7 0.7 0.7 0.6-0.1 1.1-0.1 3.5 0.3 6.5 0.3 3-0.1 6-0.1 2.9 0 5.8 0.1 3 0 6.2 0.3 0-0.4 0.3-1 0.3-0.7 0.3-1.4-1.4 0-2.7 0.2-1.4 0.1-2.1 0.1zm6.3 1.5q-0.2 0-0.1-0.8 0.2-0.7-0.2-0.7 0 0.7-0.1 1.3 0 0.6 0.4 0.2zm-1.2 0q0-0.4 0.1-0.9 0.1-0.5-0.1-0.3 0 0.2-0.2 0.7-0.2 0.5 0.2 0.5zm55.7 0.6q0-0.3-0.2-0.7-0.2-0.4-0.2-0.8-0.2-0.3-0.8-0.3 0.4 0.2 0.4 1 0.1 0.8 0.8 0.8zm0.6 0q6.3 0.2 13.6 0.4 7.3 0.3 13.9-0.1 0-0.2-0.2-0.6-0.1-0.4 0.2-0.6-6.8-0.5-14.1-0.5-7.3 0-14-0.4 0.1 0.4 0.1 1 0 0.5 0.5 0.8zm-88 14q1.1 0 1.5-0.6-0.9 0-0.9-0.2 0.5-0.6 1.5-0.6-0.2-0.7-0.1-1.1 0.1-0.3 0.1-0.7 0-0.3-0.2-0.2-0.1 0.1-0.1-0.2 0.2-2.2 0.2-5 0.1-2.9 0.1-5.1-0.4 0-1 0-0.5-0.1-0.5-0.3-0.2-0.3-0.1-0.3 0.1-0.1 0.1-0.3 0.2-0.3 0.7-0.2 0.6 0 0.8-0.4-0.7-0.2-1.2-0.2-0.5 0.1-1.2-0.1 0 2.4 0 4.3 0.1 2 0.2 3.8 0.1 1.8 0.1 3.6 0 1.8 0 3.8zm119.9-9.8q-0.1-1.6-0.5-2.7-0.3-1.2-1.3-2.4 0.3 1.6 0.8 2.8 0.6 1.1 1 2.3zm-91.2-3.6q-2 0-4.1-0.2-2.1-0.1-3.6-0.1-3.4 0.2-7.8 0-4.4-0.1-8.7 0.3v0.9q6.1 0 12.4 0.2 6.2 0.3 11.8 0.1 0.7 0 1.4-0.1 0.8-0.1 1-0.5-0.2-0.9-1-0.8-0.7 0.2-1.4 0.2zm3 0.9q0-0.2 0-0.6 0.1-0.3-0.3-0.3 0 0.2-0.1 0.7 0 0.4 0.4 0.2zm1.2 0q0.2-0.2 0-0.6-0.1-0.3-0.3-0.3 0 0.2-0.1 0.5 0 0.4 0.4 0.4zm80.4-0.3h-14q-2.7 0-5.5-0.3-2.8-0.2-5.6 0-0.2 0.4-0.1 0.6 0.1 0.1 0.1 0.6 2.1 0.2 4 0.3 2 0 3.8 0 5 0 10 0.1 5.1 0 10.1-0.4-0.3-1.2-1.2-1-0.9 0.1-1.6 0.1zm-90.3 1.2q-3.8 0.4-8.1 0.3-4.2-0.3-8-0.3-0.5 0-1.2 0-0.7-0.1-0.9 0.6 1.4 0.7 3 0.5 1.7-0.2 3.3-0.2 4.9-0.2 9.8 0.4 4.9 0.5 9.9 0.5 0.3-0.3 0.2-0.9-0.1-0.7 0.1-0.9-2 0.2-4.2 0-2.3-0.3-3.9 0zm9.3 1.8h0.9v-1.8h-0.6q-0.2 0.2-0.2 0.8 0.1 0.6-0.1 1zm-28.1-0.9h0.3q0-0.2-0.1-0.3-0.1-0.1 0.1-0.3-0.4-0.2-0.5 0.1 0 0.3 0.2 0.5zm27.2 0.9q0-0.4 0.1-0.9 0.2-0.6-0.1-0.6 0 0.2-0.3 0.9-0.1 0.6 0.3 0.6zm82.5-0.9q-3.5-0.1-6.6 0-3.1 0-6.2 0-3 0-6 0-3 0-6.3-0.3-0.2-0.1-0.3 0.2 0 0.1 0 0.5 0.1 0.2 0.1 0.7 0.1 0.3 0.2 0.4 6.6 0.2 12.9 0 6.4-0.3 13.2 0-0.4-0.4-0.2-0.6 0.3-0.3 0.7-0.4 0.5 0 0.9 0 0.5-0.1 0.6-0.2-0.7-0.4-1.5-0.3-0.8 0-1.5 0zm-27.5 1.1q0-0.4-0.1-0.9 0-0.5-0.5-0.5 0.3 0.4 0.2 0.9 0 0.5 0.4 0.5zm1.6 0q-0.3-0.1-0.4-0.6 0-0.4 0-0.8h-0.8q0.1 0.3 0.1 0.7 0.1 0.3 0.2 0.7 0.1 0.2 0.3 0.3 0.2 0.1 0.6-0.3zm-83.2-0.2q0 0.4 0.1 0.8 0.1 0.2-0.1 0.6 6.8 0 13.3 0.6 6.5 0.6 13.6 0.4 0-0.3 0-0.9 0.1-0.7-0.3-0.7-0.2-0.1-0.3 0.1 0 0.3-0.3 0.3v-0.6q-6.1 0-12.3-0.4-6.2-0.5-13.7-0.2zm-0.3 1.4q0.2-0.1 0.2-0.7 0-0.7-0.5-0.7-0.2 0.2-0.2 0.8 0.1 0.6 0.5 0.6zm28.1 1q0.7 0 0.8-0.6 0-0.7-0.2-1h-0.6q0 0.3-0.1 0.8-0.1 0.5 0.1 0.8zm3.3 5.4q-0.1-0.7-0.1-1.6 0-0.9 0-1.9 0-0.9 0-1.7-0.1-0.9-0.5-1.4-0.1 0-0.1-0.1 0 0 0 0 0-0.1-0.2 0.1 0.2 1.8 0.2 3.6 0 1.8 0.7 3zm79-6.6q-3.2 0.1-6.6 0.2-3.4 0-6.8 0-3.4 0-6.6 0-3.3 0.1-6.1 0.4 1.8 0.4 3.8 0.5 2 0.1 4 0.1 5 0 10.4 0 5.6-0.1 10.5-0.4-0.1-0.6-1.1-0.7-0.8-0.1-1.5-0.1zm-26.7 0.8v-0.6h-0.6q-0.1 0.7 0.1 0.6 0.3-0.1 0.5 0zm-65.4 1q-4.6 0-9-0.4-4.4-0.6-8.7 0-0.1 0.6 0.1 0.9 0.3 0.3 0.6 0.3 0.5 0.1 0.9 0.1 0.4-0.1 0.8-0.1 6.1 0.5 12.1 0.6 6 0.2 12.1-0.2v-1q-2.2-0.4-4.5-0.2-2.2 0.2-4.4 0zm-18 0.6q0-0.3-0.1-0.6 0-0.4-0.2-0.6h-0.3q0 0.4-0.1 0.9 0 0.5 0.7 0.3zm83.8-0.4q0-0.2-0.6-0.2-0.3 0.2 0 0.2 0.3 0 0.6 0zm2.6-0.2h-2q0.1 0.4 0.8 0.3 0.8-0.1 1.2-0.3zm8.1 0h-1.4q-0.5 0-0.9 0.1-0.3 0.1-0.1 0.1h0.9q5.2 0.5 9.7 0.6 4.6 0.1 9.8-0.6-4.6 0-9.3 0-4.6-0.2-8.7-0.2zm-66.4 1.4q0.2 0 0.3-0.1 0.1 0 0.3 0.1 0-0.4-0.2-0.8-0.2-0.4-0.4-0.6-0.2 0.2-0.2 0.8 0 0.5 0.2 0.6zm73.6 0q-2 0-4.1-0.1-2.1-0.2-4.4-0.3-2.2-0.2-4.4-0.1-2.1 0.1-4.2 0.5 0.1 0.6 0.4 0.8 0.5 0.2 0.9 0.2 0.4-0.1 0.9-0.2 0.5-0.2 0.8-0.2 1.4 0 3 0.1 1.7 0 3.3 0.1 1.7 0 3 0 1.5 0 2.4-0.2 1.8-0.1 3.7 0.1 1.9 0.2 3.7 0.4 1.8 0.1 3.6 0.3 1.8 0.1 3.4-0.2 0.1-0.4 0.1-0.7-0.1-0.2-0.1-0.5-3-0.4-6.1-0.1-3 0.4-5.9 0.1zm-102.3 0v2.2q0.7-0.3 0.7-0.5 0.1-0.4-0.1-1.3-0.2 0-0.3-0.2-0.1-0.2-0.3-0.2zm84.4 1q0.1 0 0-0.4 0-0.3 0.2-0.6h-0.6q0 0.3 0 0.6 0.1 0.4 0.4 0.4zm-83.2-0.6q-0.2 0-0.2 0.4 0.1 0.3-0.1 0.8 4.9 0.4 10.6 0.7 5.6 0.1 11.3 0.1 0.5 0 1.4 0.1 1 0 1.9 0 0.9-0.1 1.4-0.4 0.6-0.4 0.3-1.1-6.5-0.5-13-0.3-6.4 0.1-13.6-0.3zm27.5 1.8q0.2 0 0.3 0.1 0.1 0.1 0.3 0.1 0-0.4 0-0.7 0.1-0.3-0.3-0.7-0.3 0.2-0.3 1.2zm76.9 1.2h4.5q0.3-0.1 1-0.1 0.8 0 1.5 0 0.8 0 1.3-0.1 0.6-0.1 0.6-0.4 0.1-0.5-0.5-0.6-0.5-0.2-1.3-0.2-0.7 0-1.5 0.1-0.8 0.1-1.1 0.1-7-0.5-13.1-0.7-6.1-0.3-11.4 0.7 5.1 0.4 10.4 0.8 5.3 0.4 9.6 0.4zm4.7 0.8q-5.9 0-12.3-0.2-6.4-0.3-12.4-1-0.5 0.5-0.3 1 0.3 0.5 0.3 1.2 5.1 0.1 11.1 0.6 5.9 0.5 12.4 0.2 1.4 0 2.9-0.1 1.7-0.1 2.9-0.7-0.3-0.7-0.8-0.9-0.5-0.3-1.2-0.3-0.6 0-1.3 0.1-0.7 0.1-1.3 0.1zm-110-0.8v0.8h0.6q0-0.8-0.3-1.2 0 0.3-0.1 0.2-0.2-0.1-0.2 0.2zm25.7 0.2q-5.9-0.4-12.1-0.3-6.2 0-12.7-0.3-0.2 0.5-0.1 0.8 0.3 0.2 0.1 0.4 6.3 0.3 12.4 0.4 6.1 0 11.2 0.2 0.7 0 1.5 0.1 1 0 1.2-0.7 0.2-0.9-0.5-0.7-0.6 0.1-1 0.1zm2.7 0.4v0.8q0.6 0 0.6 0.6-0.2 0.3-0.4 0.3-0.2-0.1-0.2 0.3 0.2 0 0.3 0.2 0.1 0.2 0.3 0.2 0.5-0.5 0.2-1.1-0.2-0.7-0.2-1.3zm2.4 0.2q0.2 1.4 0.1 2.6-0.1 1.2-0.1 2.5 0 3.4 0.1 6.8 0.1 3.4 0.5 6.4 0.5-4.4 0.1-9.1-0.3-4.7-0.1-9.2 0-0.2-0.3-0.2h-0.2q-0.1 0-0.1 0.2zm-17.7 1.2q1.1 0.2 2.6 0.3 1.5 0.1 3 0.2 1.5 0.1 3.1 0.3 1.5 0.1 2.7 0.2 0.7 0 1.6 0 1 0 1.4-0.6-1.5-0.4-3.3-0.5-1.7-0.1-3.6-0.1-1.9 0-3.9 0.1-1.9 0.1-3.6 0.1zm-11.9 0.4q-0.3 0-0.3 0.2v0.4q6.3 0.6 13.1 0.7 6.7 0.1 13.5 0.1-6.8-0.4-13-0.8-6.1-0.5-13.3-0.6zm-1.5 0.2v0.6h0.9v-0.8q-0.6 0-0.9 0.2zm-3.9 0.4q0 0.4 0.7 0.5 0.7 0 1.1-0.3 0-0.6-0.7-0.3-0.7 0.2-1.1 0.1zm89.7 0l-0.2 0.2v1q3.3 0 7 0.2 3.6 0.2 7.4 0.4 3.8 0.3 7.7 0.5 3.9 0.1 7.8 0-0.3-0.6-0.4-1.2-0.1-0.7-0.2-1.1-3.4 0.3-7 0.4-3.7 0-7.5-0.1-3.6-0.1-7.4-0.2-3.7-0.1-7.2-0.1zm-84.6 1.2q0 0.1-0.1 0.5 0 0.3-0.2 0.3 0-0.4 0-0.6 0.1-0.2-0.6-0.2-0.2 0.1-0.1 0.4 0.1 0.2 0.1 0.4 3.6 0.9 7.5 0.8 3.9-0.2 7.8-0.2 2.5 0.3 5.2 0.3 2.7 0 4.9 0 0.3 0 0.6 0.1 0.5 0 0.8-0.1 0.4 0 0.5-0.2 0.3-0.3 0.2-0.7-6.1-0.7-13.1-0.7-7 0-13.5-0.1zm-5.1 0.2v0.4q0 1.9 0.2 4.1 0.2 2 0.4 4.2 0 2.2 0.1 4.4 0.1 2.1 0.8 3.7h0.6q-0.2-2.8-0.1-5 0.2-2.3-0.5-4.3 0.3-0.3 0.3-1.8-0.2-0.2-0.7-0.1-0.4 0-0.2-0.5 0-0.2 0.4-0.2 0.3-0.1 0.5-0.1v-2.7q0-0.2-0.4-0.1-0.4 0-0.2-0.5 0.2-0.4 0.5-0.6 0.3-0.2 0.1-1.1-0.4 0.1-1 0.1-0.6-0.1-0.8 0.1zm94.8 0.6h-3q-0.6 0-1.4 0.1-0.8 0.1-0.9 0.5 0 0.9 0.7 0.9 0.9 0 1.3 0h8.4q4.5 0.2 8.5 0.5 4.1 0.1 8.8 0.1 0.3 0 0.6 0.1 0.5 0.1 0.8 0.1 0.4 0 0.7-0.2 0.3-0.1 0.3-0.6-6.3-0.4-12.5-0.8-6.2-0.4-12.3-0.7zm-61.3 0.9q-0.4 0-0.4-0.5 0.2-0.6-0.2-0.4-0.2 0-0.1 0.3 0.1 0.4 0.1 0.6 0.2-0.2 0.4 0 0.2 0.2 0.2 0zm-29 1.2v-0.6h-0.3q-0.2 0.2-0.1 0.5 0.2 0.1 0.4 0.1zm24.8-0.3q-4.7-0.2-11-0.2-6.3-0.1-13.2-0.1h-0.3v0.6q6.1 0 12.6 0.6 6.5 0.6 12.8 0.3 0.5-0.2 1 0 0.5 0.1 0.5-0.6 0-0.4-0.3-0.6-0.3-0.2-0.7-0.2-0.4 0-0.8 0.1-0.3 0.1-0.6 0.1zm3.9 1.2q0-0.2 0.2-0.6 0.2-0.5-0.5-0.3-0.1 0.4-0.1 0.6 0 0.6 0.4 0.3zm55.1 0.3q0-0.9-0.4-1.2-0.2 0.2-0.1 0.7 0.2 0.5 0.5 0.5zm1.2-1.2q-0.3 0.2-0.2 0.6 0.2 0.5 0.2 0.9 4 0.3 7.6 0.5 3.7 0.2 7.3 0.4 3.6 0 7.3 0.1 3.6 0 7.7-0.1v-1.5q-3.8-0.1-7.3-0.2-3.5-0.1-7.1-0.2-3.6-0.1-7.4-0.2-3.8-0.2-8.1-0.3zm-85 1.8q0.2 0 0.2-0.4 0-0.5-0.2-0.5-0.2 0-0.3 0.5-0.1 0.4 0.3 0.4zm25.4-0.3q-2.5-0.2-5.6-0.1-3.1 0.1-6 0.1-3.4-0.2-6.8-0.3-3.3-0.3-6.7-0.3v0.6 0.3q2.8 0.3 5.4 0.5 2.6 0.1 5.2 0.3 2.5 0.1 5.2 0.3 2.7 0 5.7 0.1 1.4 0 2.8 0.2 1.6 0.2 2.9-0.5 0-1.1-0.7-1.1-0.7-0.1-1.4-0.1zm59.8 0.9q-0.4 0.2-0.2 0.5 0.2 0.3 0.2 1 5.4 0.9 11.2 1.1 5.9 0.1 11.3 0.1 1.8 0.2 3.6 0.3 1.8 0.1 3.6-0.3v-1.5q-7-0.2-14.2-0.5-7.1-0.2-15.5-0.7zm-84.6 0.3q-0.2 0-0.3 0.7 0 0.6 0 0.8 3.1 0.2 6 0.2 2.8-0.1 5.9 0.1 4.1 0.2 7.9 0.6 3.8 0.2 7.4 0v-1.2q-7.4-0.2-13.7-0.5-6.3-0.5-13.2-0.7zm-0.6 1.2v-1.2h-0.3q0 0.4 0 0.8 0.1 0.4 0.3 0.4zm28.7 3q-0.2-1 0-1.7 0.4-0.9-0.3-1.3 0 0.9-0.1 1.6 0 0.7 0.4 1.4zm-28.4-1.8q0 0.4 0 1.1 0.1 0.6 0.3 1 0.2-0.7 0.4-0.7 0.4-0.2 0.8-0.2 1-0.2 2.5 0 1.5 0.1 2.9 0.3 4.3 0.2 8.4 0.4 4.1 0.1 7.4-0.1 0.4 0 1.1 0.1 0.7 0.1 1.4 0.1 0.7 0 1.2-0.2 0.6-0.2 0.8-0.6-7-0.6-13.6-0.9-6.4-0.3-13.6-0.3zm85.3-0.3q0 0.5-0.1 0.6 0 0.2-0.3 0.6 3.2 0.4 6.8 0.6 3.7 0.3 7.6 0.5 3.8 0.2 7.6 0.5 3.8 0.1 7.1 0.2v-1.2q-4-0.4-7.6-0.5-3.6-0.2-7.1-0.2-3.5-0.1-7-0.3-3.5-0.3-7-0.8zm-85.3 2.4q0-0.4 0-1.1 0.1-0.8-0.6-1 0.2 0.7 0.1 1.3-0.2 0.6 0.5 0.8zm83.7 1.5q0.3 0.1 0.4 0 0-0.3 0-0.6 0.1-0.4 0-0.6 0-0.3 0-0.3-0.3 0.4-0.2 0.9 0.1 0.4-0.2 0.6zm1.8-1.5q-0.4 0-0.3 0.5 0.1 0.5 0.1 1 4.1 0.4 7.6 0.7 3.5 0.2 6.8 0.4 3.3 0.1 6.7 0.1 3.6 0 7.6 0 0-0.5-0.2-0.6-0.2-0.2-0.2-0.6-6.9-0.5-14.2-0.9-7.1-0.4-13.9-0.6zm-61.6 0.3q-1.5 0-3.2 0.2-1.6 0.2-2.8 0.4h9.3q-0.4-0.5-1.4-0.5-1-0.1-1.9-0.1zm-7.2 0.3v0.3q0.3-0.2 0.5-0.1 0.4 0 0.1-0.2zm9 0.9q-0.4 0-1 0.1-0.6 0.2-1.1 0.2-5.2 0-10.6-0.5-5.2-0.6-10-0.4-0.3 0-0.8-0.1-0.4-0.1-0.9-0.1-0.6 0-1 0.3-0.3 0.1-0.3 0.8 2.6 0.3 5.7 0.4 3.2 0.1 6.3 0.2 3.2 0 6.2 0.1 3 0.1 5.4 0.2 1 0 1.9 0.2 1 0.2 1.7-0.5 0-0.9-0.7-0.9-0.5 0-0.8 0zm58 4.5q0.3-0.7 0.4-1.8 0.1-1.1 0-1.8-0.2 0.3-0.4 0.8-0.1 0.5-0.2 1.1 0 0.6 0 1.1 0 0.5 0.2 0.6zm1.6-3.6q-0.4 0-0.4 0.6v0.3q6.6 0.7 13.9 1.5 7.3 0.8 14.2 0.6 0.6-0.6 0.6-1.8-3.5-0.1-7.2-0.2-3.7 0-7.5-0.1-3.6-0.2-7.2-0.4-3.5-0.1-6.4-0.5zm-60.2 0.9q-3.2-0.1-6.2-0.1-3 0-6 0-2.9 0-6.1 0-3.1-0.1-6.5-0.2-0.4 0-0.4 0.4 0.1 0.3 0.1 0.5 2.9 0.3 6.3 0.6 3.4 0.1 7 0.2 3.6 0.1 7.2 0.1 3.7-0.1 7-0.3 0.1-0.5-0.2-0.8-0.2-0.3-0.7-0.3-0.4-0.1-0.8-0.1-0.4 0-0.7 0zm85.3 3q-1 0-1.8-0.1-0.9-0.2-1.6-0.2-4.9 0-10.1-0.8-5.2-0.7-9.9-0.7-0.4 0-1.1 0.1-0.7 0-1 0.5v0.9q4.1 0.2 7.9 0.4 3.7 0.2 7.1 0.2 3.4 0.2 5.9 0.4 2.5 0.2 5.4 0.2 0.1 0 0.4 0.1 0.3 0.1 0.7 0.1 0.3 0 0.5-0.2 0.2-0.2 0.2-0.6-0.4-0.4-1.2-0.3-0.7 0-1.4 0zm-110.4-0.9q-0.2 0-0.1 0.5 0.1 0.4 0.1 0.7 7.2 0.4 14 0.6 6.8 0.1 13.8 0.3 0-0.7-0.1-1.1-0.1-0.3 0.1-0.7-6.5 0-13.4-0.4-6.7-0.3-14.4 0.1zm30.8 0.3h-0.3q-0.4 2.8-0.4 5.8 0 2.9 0 5.9 0.1 3 0.2 5.9 0.2 2.9 0.2 5.7 0.4-2.6 0.6-5.5 0.1-3 0.1-6 0-3.1-0.2-6.1-0.1-3-0.2-5.7zm52.3 2.4q0.3 0 0.4-0.1 0-0.2 0.2-0.2 0-0.3 0.1-0.6 0.1-0.3-0.3-0.3-0.3 0-0.4 0.4 0 0.3 0 0.8zm1.8-1.2q0 0.2-0.2 0.3 0 0.1 0 0.3 1.1 0.6 2.6 0.6 1.5-0.2 2.7 0 5 0.2 9.7 0.7 4.7 0.5 9.5 0.5 0.4 0 1 0 0.7 0 1.2 0 0.6-0.1 0.9-0.4 0.5-0.2 0.5-0.8-3.8-0.3-7.1-0.5-3.3-0.1-6.6-0.2-3.3-0.2-6.8-0.3-3.4-0.1-7.4-0.2zm-70.2 0.9q-1.6 0.1-3.5 0.1-1.9-0.1-3.9-0.2-1.9-0.1-3.7-0.2-1.8 0-3.3 0-0.4 0-0.4 0.5 0.1 0.5 0.1 0.7 7.4 0.4 13.8 0.6 6.5 0 13.7-0.6-1.8-0.5-3.4-0.6-1.7-0.1-3.3-0.1-1.5 0-3.1 0.1-1.5 0-3-0.3zm-17.4 5.6v-5.6q-0.4 0-0.6-0.1-0.1-0.2-0.3 0.1 0.2 1.4 0.2 3 0 1.5 0.7 2.6zm87.6-4.7q-0.2 0-0.2 0.6v0.3q7.1 0.7 13.5 1.4 6.5 0.7 13.6 1 0-0.4 0.2-1 0.3-0.7 0.4-1.2-6.9 0-13.6-0.5-6.7-0.6-13.9-0.6zm-2 1.1q0.6 0 0.6-0.3 0-0.3 0.2-0.5-0.7-0.3-0.8 0.1 0 0.3 0 0.7zm-57.2 0q-2.5-0.1-4.9 0-2.4 0-3.7 0-4.6 0.5-8.7 0-4-0.4-8.1 0-0.2-0.1-0.4 0.4-0.2 0.4-0.2 0.8 6.1 0 12.2 0 6.2-0.1 12.9 0 0.6 0 1.6 0.3 1 0.2 1.4-0.5-0.2-0.7-1-0.8-0.7-0.2-1.1-0.2zm59 0.6q-0.3 0.3-0.4 0.7 0 0.5 0 0.9 0.4-0.3 0.8 0.1 0.3 0.2 0.8 0.5 2.8 0 5.8 0.2 3 0.1 6 0.4 3.1 0.2 5.9 0.4 2.9 0.2 5.2 0.2 0.4 0 0.8 0.1 0.5 0.1 0.9 0.1 0.5-0.1 0.7-0.3 0.4-0.3 0.4-0.9-2.5 0-5.8-0.3-3.4-0.3-7-0.7-3.6-0.4-7.3-0.8-3.7-0.3-6.8-0.6zm-3.4 4h1.2q-0.2-1.2 0.3-1.8 0.4-0.7 0.7-1.8-0.6 0.1-1 0.4-0.2 0.4-0.5 0.9-0.2 0.5-0.3 1.1-0.1 0.6-0.4 1.2zm-58-2.4q-3.2-0.1-6.1-0.2-2.9-0.2-5.7-0.2-2.8 0-5.6 0.2-2.8 0.1-5.9 0.4 0 0.5-0.1 0.9 0 0.4-0.2 0.7 3.4 0.2 6.6 0.2 3.3-0.2 6.5-0.5 3.2-0.2 6.2-0.4 3.1-0.3 6.1-0.3 0.9 0 1.7 0.3 0.8 0.2 1-0.5-1.2-0.7-2.3-0.6-1 0-2.2 0zm61 1.2q-0.4 0-0.4 0.5 0.1 0.4-0.2 0.7 6.6 0.7 13 0.7 6.5 0 13.9-0.1-3.1-0.4-6.6-0.7-3.5-0.3-7-0.6-3.5-0.3-6.8-0.3-3.2-0.2-5.9-0.2zm-79.5 2.4q4.5 0.1 9.8 0.1 5.4 0 9.9-0.5 0.8-0.1 1 0 0.4 0 0.5 0 0.1 0 0.3 0 0.2 0 0.9-0.2 0.7-0.1 0.8-0.3 0.1-0.2-0.1-0.4-0.2-0.3-0.6-0.3-0.3-0.2-0.7-0.2-2.2-0.3-4.3-0.1-2.2 0.1-3.8 0.1-3.1 0.2-6.2 0.5-3.1 0.3-6 0.3-1.6 0-3.2 0-1.6-0.1-3.4 0.4 1 0.7 2.2 0.7 1.3-0.1 2.9-0.1zm-7.8-1v1q0.4 0.1 0.4-0.4 0-0.6-0.4-0.6zm78.1 6.6h2q0.3-0.4 0.5-0.6 0.1-0.2 0.1-0.6-0.4-0.2-0.9-0.2-0.5 0-0.5-0.6h1.8q0.4-1.2 0.6-2 0.2-0.9 0.2-2.2-0.1 0-0.6-0.1-0.4-0.2-0.8 0.1 0.1 1.3-0.6 2.3-0.7 0.9-1 1.9-0.1 0.4-0.3 0.8-0.1 0.4-0.5 0.4 0 0.4 0.1 0.4 0.1 0-0.1 0.4zm5.6-3.6q0.5 0 0.6-0.2 0.3-0.4 0.4-0.7 0.1-0.4 0.2-0.8 0.1-0.4 0.4-0.7-0.3 0-0.6-0.1-0.2-0.1-0.6-0.1 0 0.7-0.1 1.2 0 0.5-0.3 1.4zm3-2.4h-0.2v0.6q5.6 0.5 11.9 0.9 6.3 0.3 12 0.3 0.3 0 0.8 0.1 0.4 0.1 0.8 0.1 0.4-0.1 0.7-0.3 0.3-0.2 0.3-0.7-6.3-0.7-13-0.5-6.7 0.2-13.3-0.5zm-79.5 1.2q-1.4-0.1-2.6-0.1-1.2 0-1.6 0.5 0.7 0.7 1.9 0.7 1.2-0.1 2.3-0.1 3.1 0 6.5 0.3 3.4 0.3 6.4 0.3 2.4-0.5 5-0.2 2.6 0.3 5.7-0.2-0.2-0.4-0.1-0.7 0.1-0.3 0.1-0.7-2.9 0-6 0.1-3.2 0-6.3 0.1-3 0.1-6 0.2-2.9 0-5.3-0.2zm78.9 0.6q0 0.4-0.2 0.4 0 0.1 0 0 5.9 0.7 11.2 1.1 5.4 0.4 10.6 0.7 0.5 0 1.2 0 0.8 0.1 1.5 0.1 0.7 0 1.1-0.2 0.5-0.4 0.7-1.1-7 0-13.3-0.5-6.2-0.6-12.8-0.5zm-82.8 1.2q-0.4 0-0.2 0.6 0.1 0.5-0.1 1 6.3 0 12.7 0 6.5-0.1 12.4-0.4 0.4 0 1.4-0.1 1-0.1 1-0.5-3.3-0.3-6.8-0.4-3.5-0.1-7.1-0.1-3.5 0-7 0.1-3.4 0-6.3-0.2zm82.2 0.4q-0.2 0-0.2 0.2-0.4 0-0.4 0.6 6.6 0.3 12.9 1.1 6.3 0.8 12.2 1.1 0.5-0.3 0.7-0.7 0.4-0.5 0.5-0.9-3.5-0.1-6.7-0.3-3.2-0.3-6.2-0.5-3-0.3-6.2-0.5-3.1-0.1-6.6-0.1zm-2 0.8q0.1 0 0.2-0.4 0.2-0.4-0.2-0.4 0.1 0.1-0.1 0.3-0.2 0.1 0.1 0.5zm-56 1q-3 0-5.6 0-2.7 0-5.3 0-2.7 0-5.4 0.1-2.7 0-5.8 0.1-0.5 0-1.2-0.2-0.8-0.1-1.2 0.6 0.4 0.4 1.3 0.3 1-0.1 1.7-0.1 5.3 0.3 10.3 0.2 5-0.2 10.6-0.2 0.9 0 1.9 0.2 1 0.2 1.4-0.8-0.4-0.7-1.2-0.4-0.8 0.2-1.5 0.2zm59.8 0.2q-0.7 0-1.6 0-1-0.1-1.6 0.6 5.9 1.2 11.8 1.8 5.9 0.5 12.3 1.2 0.5-0.4 0.7-0.8 0.4-0.3 0.5-1-2.3-0.1-5.1-0.4-2.7-0.4-5.7-0.7-2.9-0.3-5.8-0.5-2.9-0.3-5.5-0.2zm-84 1.6q-0.6 1 0 2 3.9 0 7.3 0.1 3.3 0 6.4 0 3.2 0 6.2 0 3.1-0.1 6.4-0.4 0.2-0.4 0.2-0.7 0.1-0.4 0.1-1-3.3-0.1-6.5-0.1-3.2 0-6.4 0.1-3.2 0-6.5 0-3.3 0-7.2 0zm-0.3 1.7q-0.2-0.2-0.1-1 0.2-0.7-0.5-0.7 0 0.4-0.1 1.1 0 0.6 0.7 0.6zm75.1-1.7q-1.2 1.3-1.6 3-0.5 1.7-1.1 3.2 0.6 0 1-0.1 0.3-0.1 0.7 0.1 0.5-1.1 1.1-2.1 0.6-0.9 0.7-2.1 0-0.2-0.3 0-0.3 0.2-0.3-0.3 0.4 0 0.4-0.6 0.4-0.2 0.8-0.3 0.4-0.2 0.4-0.6-0.7 0-1-0.1-0.4-0.1-0.8-0.1zm5.6 0.2q-0.1 0-0.4 0.5-0.2 0.5-0.2 0.7 5.4 0.7 10.8 1 5.5 0.3 10.2 0.5 0.9 0 1.9 0.2 1.1 0.2 2-0.5-6.2-0.2-12.4-1-6.2-1-11.9-1.4zm-0.8 2.1q-0.5 0.2-0.7 1-0.3 0.7-0.3 1.1 5.4 0.3 10.5 0.5 5.3 0.2 10.2 0.4 0.5 0 1.2 0.1 0.7 0.1 1.3 0 0.7-0.1 1.2-0.3 0.5-0.3 0.8-1-3.2 0-6.1-0.2-2.9-0.3-5.8-0.5-2.9-0.3-6-0.5-3-0.3-6.3-0.6zm-79 0.3h-0.6v1.8q3.9 0 7.3 0.1 3.3 0.1 6.4 0.2 3.2 0 6.2-0.1 3.2-0.1 6.7-0.5v-1.5q-5.9 0-12.5 0.2-6.6 0.1-13.5-0.2zm-0.9 1.8q0.2-0.4 0-0.9-0.2-0.5 0-0.9h-0.6q0.2 0.7 0.1 1.3 0 0.5 0.5 0.5zm0.3 0.9v1.5q3 0.2 6.4 0.3 3.4 0.1 6.9 0.1 3.5 0 6.9-0.1 3.4-0.1 6.4-0.3-0.2-0.4-0.1-0.8 0.1-0.3 0.1-1-6.9 0.3-13.5 0.2-6.6-0.1-13.1 0.1zm78-0.3q-0.1 0.3-0.5 0.7-0.2 0.4-0.1 0.8 4.1 0.5 8.3 0.6 4.2 0.1 8.5 0.3 1.1 0 2.3 0.2 1.2 0 2.2 0 1.1 0 2-0.3 0.8-0.3 1.3-1.1-6.1-0.2-12.3-0.5-6.3-0.4-11.7-0.7zm-78.3 1.8q0-0.2 0-0.6 0.1-0.4 0.3-0.9h-0.6q0 0.5-0.2 1.1-0.2 0.6 0.5 0.4zm70 3.3q0.4 0.2 0.8 0.3 0.5 0 1 0 0.2-0.7 0.6-1.2 0.5-0.5 0.9-1.2h-0.6q0.2-0.4 0.5-0.6 0.3-0.2 0.3-0.6-0.4 0-0.8 0.2-0.4 0.2-0.6-0.2-0.4 0.9-1.1 1.7-0.6 0.7-1 1.6zm7.1-3q-0.1 0.2-0.2 0.6-0.1 0.4-0.4 0.6 5.2 0.5 10.5 0.9 5.2 0.4 9.9 0.6 1.3 0.2 2.1-0.1 0.9-0.4 0.9-1.4-5.9-0.2-11.6-0.3-5.5-0.2-11.2-0.9zm-76.8 0.9q0.4 0.4 0 1.2 6.8 0 13.5 0.3 6.8 0.4 13.7-0.3v-1.5q-6.1 0.2-13 0.3-6.9 0-14.2 0zm-0.6 1.2h0.6q0-0.2-0.2-0.4-0.1-0.4-0.1-0.8h-0.3q-0.2 0.2-0.2 0.5 0.2 0.3 0.2 0.7zm-3 2.7h0.9q-0.1-0.4-0.1-1 0-0.6 0-1.1 0-0.6-0.1-1-0.1-0.6-0.4-0.8h-0.3q0 0.7-0.1 2-0.1 1.2 0.1 1.9zm79.6-2.7q-0.4 0.2-0.6 0.7-0.1 0.3-0.4 0.5 6.4 0.2 11.4 0.7 5 0.6 10.2 0.8 0.2-0.2 0.6-0.5 0.3-0.3 0.3-0.7-5.4 0-10.6-0.7-5.1-0.8-10.9-0.8zm-75.7 0.9q-0.2 0.4-0.1 1 0.1 0.4 0.1 0.8 6.7 0.2 13.6 0.2 6.8 0 13.3-0.2v-1.8q-6.9 0.2-14 0.1-7-0.1-12.9-0.1zm-0.6 1.8q0.2-0.2 0.2-0.9 0-0.7-0.2-0.9h-0.3q0 0.4-0.1 1.1-0.1 0.7 0.4 0.7zm70.9-0.6h-1.8q-0.4 0.4-1.1 1-0.6 0.6-1 1.1-3.2 2.4-7 4.3-3.7 1.8-7 4 2.9-0.6 5.5-1.2 2.7-0.6 4-2.6 2.8-0.7 4.7-2.7 2.1-1.9 3.7-3.9zm3.8 0v0.1q0 0.2 0 0.2 4.4 0.2 9.1 0.9 4.8 0.7 8.9 0.9 0.9 0 1.9 0.1 1 0 1.4-0.7-5.2-0.5-10.4-1-5.2-0.5-10.9-0.5zm0.4 1.2q-0.3 0-0.8 0.1-0.5 0.1-0.8 0.5 2.6 0.3 5.1 0.6 2.5 0.3 4.9 0.5 2.5 0.2 5.2 0.3 2.6 0.1 5.5-0.2-2.5-0.1-4.8-0.4-2.4-0.4-4.7-0.7-2.4-0.3-4.8-0.5-2.3-0.3-4.8-0.2zm-74.8 0.6q0.2 0.2 0.1 0.4-0.1 0-0.1 0.5 1 0.4 1.8 0.4 0.9-0.1 1.8-0.1 5.4 0.2 11.5 0.3 6.2 0.1 11.8-0.9 0.2 0 0.2-0.3 0.1-0.4 0.1-0.6-3.3 0-7.1 0-3.8 0-7.6 0.1-3.8 0-7.1 0-3.2 0.1-5.4 0.2zm-0.3 1.2q0-0.4 0.1-0.9 0.1-0.6-0.1-0.6-0.2 0.2-0.1 0.7 0.1 0.6 0.1 0.8zm-3.6-1.2v0.9q0.2-0.5 0.6-0.5 0.4 0 0.6 0.5v-0.9zm76.3 0.9q0 0.3-0.2 0.3-0.1 0.1-0.2 0v0.3q4.4 0.2 8.5 0.7 4.2 0.5 8.3 0.8 0.6 0 1.3 0.1 0.7 0.1 1.4 0.1 0.7-0.1 1.1-0.3 0.6-0.2 0.7-0.8-3.1 0.1-5.7 0-2.6-0.2-5-0.5-2.4-0.2-4.9-0.5-2.5-0.2-5.3-0.2zm-53.6 1.2q-0.4 0-0.9-0.3-0.5-0.2-0.9 0-0.4 0-1 0.2-0.6 0.1-1 0.1-4.1-0.2-7.6-0.1-3.5 0.1-7.1 0.1-0.2 0.2-0.2 0.6 0.1 0.4-0.1 0.6 3.6 0.2 6.6 0.4 3.1 0.1 5.9 0.2 2.8 0 5.6-0.1 2.8-0.2 6.1-0.5 0.1 0 0-0.1-0.1-0.1-0.3-0.2 0-0.2 0-0.3 0 0 0.3 0 0.4-0.2 0.6 0.1 0.2 0.3 0.6 0.5 0-0.5 0.2-0.6 0.2-0.1 0.4-0.3 0.4 0.2 0.7 0.5 0.3 0.4 0.5 0.4 0.2-0.2 0.1-0.7-0.2-0.6-0.4-0.8-2.4-0.2-4.5 0-2 0.3-3.6 0.3zm52.6 0q-0.1 0.2-0.5 0.6-0.3 0.4-0.3 0.6 2.5 0.2 4.7 0.5 2.3 0.2 4.6 0.5 2.3 0.2 4.7 0.3 2.4 0.2 5.1 0.2 0.2-0.3 0.5-0.3 0.5-0.2 0.7-0.6-5.2-0.5-9.9-0.9-4.6-0.5-9.6-0.9zm-40.3 2.7q-0.2-0.7-0.2-1.5 0-0.7-0.4-0.9 0 0.7-0.1 1.5 0 0.6 0.7 0.9zm46.1 0q-1.1-0.1-2.4-0.4-1.4-0.4-2.7-0.5-1.2 0-2.3 0.2-1 0.3-1.3 1.3 4.7 0.2 9.1 0.7 4.4 0.5 9.4 0.5 0.3-0.3 0.7-0.3 0.5-0.2 0.5-0.9-2.7 0-5.5-0.2-2.6-0.2-5.5-0.4zm-52.4-0.9q-1.5 0.4-3.3 0.6-1.7 0-3.5 0.3-3.9 0.2-7.6-0.1-3.7-0.3-7.1-0.5-1 0-2 0.1-1 0-1 1.1 7-0.4 13.5 0 6.6 0.3 13.7 0.6-0.4-0.9-1.3-1.1-1-0.4-1.4-1zm-21.5 2.1q-1 0-1.9 0.1-1 0.1-1.4 0.7 0.2 0.3 0.4 0.2 0.2-0.1 0.2 0.2-0.6 0-0.6 0.2 7.3-0.1 14.3 0.2 7.1 0.3 13.2-0.2 0.5 0 0.1-0.1-0.2-0.2 0.2-0.5 0.2 0.3 0.2 0.6 0 0.3 0.4 0 0.2-0.1 0.1-0.2-0.1-0.2-0.1-0.6-6.8-0.3-12.9-0.4-6.1-0.2-12.2-0.2zm64.3 0q0 0.1-0.3 0.3-0.1 0.2-0.4 0.4-0.2 0.1-0.4 0.3-0.1 0.2 0.2 0.2 2.4 0.4 5.1 0.7 2.7 0.2 5.6 0.5 1.1 0.1 2.3 0.2 1.1 0.2 2.2 0.2 1.1 0 2-0.2 1-0.4 1.6-1.2-3.8-0.1-8.4-0.6-4.5-0.4-9.5-0.8zm22.1 1.4q1 0 1.5-0.5 0.6-0.5 0.6-0.9-0.4 0.4-1 0.8-0.6 0.2-1.1 0.6zm-50 0.6q1.2 0.3 3.2 0.4 2 0 3.2 0 0-0.4-0.2-0.9-0.1-0.5 0.2-0.9-1.8 0.4-3.5 0.6-1.7 0.2-2.9 0.8zm19.2 0.4q0.4-0.3 0.9-0.4 0.5-0.3 0.3-0.6 0 0.5-0.6 0.6-0.6 0-0.6 0.4zm-34.4 0q-4.3 0.2-8.8-0.1-4.6-0.3-9.1-0.3h-0.3q-1 0.2-2 0.1-1-0.1-1.9-0.1-0.9 0-1.7 0.2-0.7 0.2-1 0.8 0.4 0.4 1.2 0.3 0.8-0.1 1.5-0.1 2-0.1 3.9-0.1 2.1-0.1 3.9-0.1 3.6-0.3 7-0.3 3.5 0 7.3 0.3 0.7 0 1.7 0.2 1.2 0.1 1.6-0.6-0.7-0.6-1.6-0.4-1 0.2-1.7 0.2zm40.7-0.4q-0.2 0-0.7 0.4-0.3 0.2-0.5 0.2 3.6 0.3 7.5 1.1 4.1 0.7 7.5 0.7 0.4 0 0.9 0 0.6-0.1 0.9-0.8-1.7-0.4-3.8-0.5-2-0.3-4.1-0.4-2-0.1-4.1-0.2-2-0.2-3.6-0.5zm-36.5 1.2v-0.8h-0.6q0 0.2 0.1 0.4 0.2 0.4 0.5 0.4zm2.1 0q0.4 0 0.7 0 0.4-0.2 0.8-0.2-0.2-0.4-0.7-0.5-0.4-0.1-1.1-0.1 0 0.6 0.3 0.8zm14.9-0.2h-2.6q0.1 0.3 0.5 0.4 0.4 0.1 0.8 0 0.6-0.1 0.9-0.2 0.4-0.1 0.4-0.2zm-0.6 2q2.1 0 4-0.1 1.8 0 3.2-0.7-1.5 0-2.8 0.1-1.3 0-2.2-0.7-0.8 0.2-2.2 0.2-1.3 0-2.7 0-1.4-0.1-2.7-0.2-1.2-0.2-2-0.4 1.4 1 3.4 1.4 2.1 0.4 4 0.4zm2.8-1.2q0.9-0.1 2.3 0 1.4 0.1 2.1-0.6-1.4 0.3-2.6 0.3-1.2-0.1-1.8 0.3zm-43.4 0.4q5.9-0.3 11.1-0.1 5.2 0.2 9.5 0.3 0.7 0 1.7 0.1 0.9 0.1 1.3-0.3-5.6-0.4-11.3-0.7-5.6-0.3-12.3 0.7zm71.7 0.8q-2.2-0.1-4.7-0.5-2.4-0.4-4.8-0.7-1.1 0-2.1-0.1-0.9-0.2-1.8-0.1-0.8 0-1.6 0.2-0.7 0.3-1.1 1 2.1 0.1 4.5 0.3 2.4 0.2 4.9 0.4 2.5 0.1 4.9 0.2 2.5 0 4.8-0.3-0.4-0.5-1.3-0.4-0.7 0-1.7 0zm-45.4-0.8q0.7 0.4 1.9 0.3 1.2-0.1 2.3-0.3-1.8-1-4.2 0zm-48.7 0.8q0.4 0.3 0.2-0.2-0.1-0.6-0.2-0.6 0.1 0.2 0.1 0.4-0.1 0.3-0.1 0.4zm101.7 1.2q0.2-0.3 0.6-0.6 0.5-0.2 0.9-0.4 0.4-0.3 0.8-0.4 0.3-0.2 0.3-0.4-0.7 0.3-1.7 0.7-0.9 0.4-0.9 1.1zm-89.8 0.6h3.3q-0.4-0.4-0.4-1.1 0.2-0.8-0.2-0.9-0.7 0.4-1.4 1-0.6 0.6-1.3 1zm30.5-1.8q-6.5 0-12.6-0.1-6-0.1-11.9-0.1-0.4 0.1-0.2 0.9 0.3 0.7-0.1 1.1 3.3-0.2 6.7-0.2 3.5-0.1 6.9-0.1 3.5 0 6.8-0.1 3.3-0.1 6.5-0.4 0.4 0 0.9 0.1 0.6 0 0.6-0.7-0.7-0.5-1.7-0.4-0.9 0-1.9 0zm6.3 0v0.6q1.3 0.5 3.6 0.4 2.3-0.1 3.9-0.4-0.6-0.3-1.6-0.4-1-0.2-2.1-0.2-1.1-0.1-2.1 0-1 0-1.7 0zm23.6 1.2q-0.4-0.1-0.3-0.3 0.2-0.3-0.3-0.3-0.2 0.5-0.9 0.5-0.7 0-0.8 0.5 2.3 0.1 5.1 0.2 2.8 0.2 5.7 0.3 3 0.1 5.8 0 2.8-0.1 5.1-0.5-2.3 0-4.8-0.4-2.6-0.3-5.2-0.6-2.4-0.2-4.8-0.1-2.4 0-4.6 0.7zm-23.6 0.6q-0.2 0-0.1 0.5 0.1 0.6 0.1 0.7 6.7 0 12.8 0.6 6.1 0.6 12.9 0.6 4 0 8.2-0.1 4.3 0 7.7-1.7-4.9 0.4-10 0.3-5.1-0.2-10.3-0.4-5.3-0.3-10.6-0.5-5.3-0.2-10.7 0zm-26.6 1q-1.4 0-2.5 0-1.1-0.1-2 0.6 7 0 14.7-0.3 7.7-0.2 14.6-0.1-0.3-0.2-0.3-1.2-2.5 0-5.8 0.1-3.2 0.1-6.6 0.3-3.3 0.1-6.5 0.3-3.1 0.2-5.6 0.3zm25.1 0.2h0.9q0-0.1-0.1-0.7 0-0.5-0.2-0.5-0.2 0.3-0.2 0.8 0 0.4-0.4 0.4zm-38.3-0.2q-1.2 0.1-2.3 0.7-1 0.4-2.2 0.1-0.9 0-1.8-0.2-0.8-0.3-1.4 0.6 1.4 0.1 3.1 0.1 1.8-0.1 3.7-0.2 1.9-0.2 3.7-0.3 1.8-0.1 3.2-0.2 0.3 0 0.6 0.1 0.4 0 0.6 0 0.4 0 0.6-0.1 0.3-0.2 0.3-0.6-1.6 0.1-3.7 0-2.1-0.3-4.4 0zm84.4 1.4q1.3 0 1.8-0.8-0.5 0.1-1.1 0.3-0.5 0.1-0.7 0.5zm-46.7-0.2q-2.2-0.3-4.3-0.1-2.1 0.1-4 0.1-2.5 0.1-5.2 0.1-2.6 0-5.2 0-2.6 0-4.8 0-2.2 0-3.7 0.1-0.2 0-1.1 0-0.7-0.1-0.7 0.6 0.2 0.7 0.9 0.7 0.8-0.1 1.2-0.1h2.7q6.1-0.2 12.8 0 6.6 0.2 13.2-0.2 0-1-0.6-1-0.5-0.1-1.2-0.2zm15.8 0.6q-3.1 0-6.7-0.5-3.5-0.4-6.7-0.1-0.4 0.1-0.2 0.6 0.4 0.3 0.2 0.6 4.7 0.1 10.1 0.2 5.4 0.1 10.5 0.4 1.4 0 2.7 0.1 1.3 0.1 2.7 0.1 0.2 0 0.5-0.2 0.3-0.4 0.7-0.4l0.6 0.4q2 0.1 3.7-0.2 1.8-0.4 3.2-0.8-5.6 0-11-0.1-5.3-0.1-10.3-0.1zm-48.1 0q-3.1 0-6.8 0.2-3.6 0.2-6.3 0.6 3.8 0.4 7.8 0.4 4.1-0.2 7.7-0.6 0-0.5-0.3-0.6-0.3-0.2-0.7-0.2-0.4 0-0.8 0.1-0.3 0.1-0.6 0.1zm2.7 0.8q0-0.2 0.1-0.5 0.1-0.3-0.1-0.3-0.5 0.4 0 0.8zm16.5 1.2q1.5 0 3.1 0 1.7-0.1 2.8-0.2-1.7 0-3-0.2-1.2-0.2-3.3-0.2 0 0.3 0.2 0.4 0.2 0 0.2 0.2zm6.8-0.2q0.7-0.3 1.2 0 0.5 0.3 0.9-0.4-0.6 0-1.2 0.1-0.6 0-0.9 0.3zm19.1 0.2q0-0.4 0.3-0.2 0.3 0.1 0.3 0-1.8-0.3-3.5-0.2-1.6 0.1-2.7-0.2 1.5 0.4 2.8 0.4 1.3 0 2.8 0.2zm1-0.2q0.9 0.4 1.9 0.5 1.1 0.1 2.3 0.1 1.1 0 2.3-0.2 1.3-0.2 2.5-0.2 1.3 0 2.7 0.4 1.4 0.3 2.3-0.4-3.9 0-7-0.2-3.2-0.3-7 0zm-59.2 0.6q0.9-0.3 1.6-0.1 0.7 0.1 1.4-0.3-0.7 0-1.8 0.1-1.1 0-1.2 0.3zm48.4 1.2q-0.3 0-0.3 0.2l-0.1 0.1q0 0.2 0.1 0.3 1.4 0 3.3 0 2 0 3.9 0 1.9 0 3.6-0.1 1.8-0.1 2.9-0.3-3.6 0-6.8-0.1-3.3-0.1-6.6-0.1zm-49.4 1.1q1.1 0.5 2.3 0.6 1.3 0 2.5-0.1 1.2-0.1 2.4-0.1 1.3-0.1 2.4 0.2 0.4 0 0.8 0.5 0.3 0.4 0.7 0.4 1.4 0.3 2.9 0 1.7-0.3 2.8-0.6 0.1-0.4-0.3-0.4-0.2-0.1-0.7 0-0.4 0.1-0.9 0.1-0.4 0-0.5-0.3 0.2-0.4 1.1-0.4 0.8 0 1.3-0.4-1.5 0-3.4 0-1.8-0.1-3.6 0-1.9 0-3.6 0.1-1.7 0.1-2.8 0.4-0.3-0.4-0.1-0.6 0.1-0.3-0.3-0.3-0.9 0-1.9 0.2-0.8 0.1-1.1 0.7zm68.2-0.9q0.4 0.4 0.8 0.4 0.5 0 0.9 0 0.5 0 0.9 0 0.3-0.1 0.4 0-0.7-0.5-1.3-0.3-0.5 0.2-1.7-0.1zm5.1 0.6q0.5-0.2 0.6-0.1 0.2 0.1 0.6 0.1 0-0.4-0.5-0.4-0.5 0-0.7 0.4zm5.1-103.5q0.4 0 0.6 0.4 0.2 0.2 0.6 0.2-0.2 0.5-0.6 0.1-0.4-0.4-0.6-0.7zm1.5 1.6q0.2-0.3 0.9 0.1 0.7 0.3 0.9 0.7-0.7-0.1-1-0.4-0.4-0.3-0.8-0.4zm7.8 6.2q0.2-0.2 0.9 0.3 0.9 0.6 0.9 1.2-0.3-0.4-0.9-0.8-0.5-0.4-0.9-0.7zm98.3 5.1q0 0.2-0.1 0.5-0.1 0.2 0.1 0.4-0.2 0-0.3-0.4-0.1-0.5 0.3-0.5zm-34.1 4v0.3q0 0.4 0.2 0.5-0.8-0.3-0.2-0.8zm-0.5 2.4q0.5 0.4 0.4 1.3-0.1 1-0.1 1.9-0.3-0.7-0.3-1.5 0-0.8 0-1.7zm35.5 40.4q-0.2 0.4-0.4 0.7-0.2 0.2-0.2 0.6-0.4 0-0.3-0.1 0-0.3 0-0.7-0.2 0.2-0.4 1-0.1 0.9 0.4 1 0.4-0.1 0.1-0.6-0.2-0.5 0.2-0.2 0 0.4-0.3 1-0.2 0.6-0.4 1.2-0.2 0.5-0.2 0.9 0 0.5 0.5 0.7 0.4 0.3 0.2 0.1-0.1-0.2-0.2 0.5-0.5 0.7-0.4 1.6 0.1 0.7 0.3 1.4 0.4-0.4 0.3-1 0-0.7 0-1.6 0.3 0.3 0.2 0.8 0 0.4-0.1 1 0 0.4 0 0.7 0.1 0.4 0.4 0.5 0.3 0.5 0 0.7-0.3 0.2-0.6 0.5-0.1 0-0.1-0.2 0.1-0.2-0.1-0.2-0.3 0-0.2 0.4 0.2 0.3 0.2 0.6 0 0.1 0.3 0 0.4-0.2 0.5 0.3 0 0.4-0.1 0.5-0.1 0.1 0.1 0.4-0.3 0.2-0.9 0.2-0.3 0.4-0.1 0.9 0.2 0.3 0.4 0.3 0.6 0.1 0-0.6 0.4 1.5 0.1 3.5-0.1 2.1 0 4.3-0.4-0.2-0.2-0.6 0.1-0.4-0.1-0.9-0.4 0.2-0.4 1.1 0.1 0.8 0.3 1 0.3 0 0.2-0.2-0.1-0.2-0.1-0.4 0.2 0.7 0.7 0.7 0.5 0 0.4 0.9 0 0.3-0.9 0.2 0 1.2 0.1 2.3 0.1 1.1 0.1 2.5-0.4 0.2-0.3-0.1 0.1-0.5-0.3-0.2-0.2 0-0.1 0.5 0.1 0.5 0 1 0.3 0 0.6 0 0.5 0 0.6 0.4 0 0.8-0.8 0.8v0.9q1 1.6 2.8 2.6 1.9 1.1 3.6 2 0.2 0-0.1-0.2-0.2-0.1 0.1-0.4 0.8 0.6 1.7 1.4 0.9 0.7 1.9 1.3 0.9 0.5 1.9 0.8 1.1 0.3 2.2 0.1 0.1 0.4 0.7 0.5 0.7 0.1 1.7 0.1 0.1-0.2 0.1-0.6 0-0.4 0-0.8 0.1-0.4 0.3-0.7 0.3-0.2 0.9-0.2 0 0.4 0 0.9 0.2 0.5 0.1 1.1 0.9-0.3 1.8 0-0.2 0.5-0.5 0.8-0.3 0.3-1.3 0.2 0 1.1 0 2.4 0 1.2 0.3 2.4 1.1 0.1 1.9 0.2 0.9 0.1 2.3 0.1-0.1 0.3 0 0.7 0.1 0.4 0.1 0.8-0.9 0.2-2 0.1-1-0.1-2.4 0.1-0.3 0.3-0.3 0.7-0.1 0.3-0.3 0.5-0.4 0-0.8-0.4-0.2-0.5-0.4-0.5-3.8-0.4-8.3 0.1-4.3 0.6-8.5 0.9-0.5 1.8-0.5 3.8 0.1 2.1-0.6 4.3-0.5-1.8-0.4-3.8 0.1-2.1-0.3-3.7-0.5-0.5-1.4-0.6-0.8-0.1-1.7 0.1-0.9 0.1-1.8 0.3-0.9 0.3-1.7 0.4-0.6-0.6-0.5-1-4.4-0.1-8.5 0.1-4 0.3-7.2 0.4-0.4 0.2-0.4 0.1 0-0.1-0.2-0.1-0.3 0.3-1 0.4-0.6 0.1-1.3 0.1-0.6 0-1.3 0-0.7-0.1-1.1 0 0 0.9 0 1.8 0.2 0.9-0.7 1.2 0 0.6 0.1 1.4 0.2 0.7-0.5 0.9-0.4-0.6-0.6-2.1-0.1-1.5-0.1-2.6 0-0.5-0.7-0.5-0.7 0-1.1 0-1.4 0-2.9 0.3-1.5 0.2-3 0.2-1.6 0.1-3 0-1.4-0.2-2.5-1-1.2 0.2-2.6 0.3-1.2 0-1.9 0.4-0.5-0.4-1.3-0.3-0.8 0.2-0.8 0.6-0.9-0.3-1.7 0-0.7 0.1-1.6 0v-0.4q0.4-0.7 1.2-0.6 0.8 0 1.8-0.1 0-0.5 0-1.1 0-0.7-0.2-1.1 0-0.2-0.3 0-0.4 0.1-0.6-0.3 0-0.9 1.5-0.9 0.2-0.2 0.4-0.4 0.4-0.4 0.9-0.8-0.2-0.4-0.4-0.5-0.3-0.2-0.5-0.2-0.3 0-0.5 0.1-0.1 0-0.1-0.2 0-0.7 0.5-0.7 0.6 0 1-0.3 0-0.7-0.2-1.2-0.1-0.6-0.1-1.8-0.1-0.1-0.6-0.1-0.5 0-0.2-0.7 0.7-0.3 1.2-0.7 0.5-0.4 0.9-0.9 0.3 0.4 0.2 0.7-0.1 0.4 0.1 0.6 1.8-0.1 3.7-0.2 2.1-0.1 4-0.3 2-0.2 3.8-0.8 1.8-0.5 3.2-1.6 0.1-0.4-0.3-0.4-0.3-0.1-0.2-0.8 0.2-0.2 0.6-0.2 0.5-0.1 0.9-0.1 0.7-0.9 0.6-2.2 0-1.2-0.3-2.6-0.1-1.5-0.2-3.1 0-1.5-0.4-2.9-0.5 1.4-0.6 2.6-0.1 1.1-0.1 2.2 0 1.1 0 2.3 0.1 1.1 0.1 2.5-0.6-1.5-0.6-3.1 0.1-1.6 0.4-3.3 0.2-1.7 0.5-3.4 0.3-1.6 0.3-3-0.2-0.3-0.6-0.4-0.3-0.1-0.3-0.6 0.3-0.1 0.4-0.2 0.3-0.1 0.6-0.4 0-0.9-0.2-1.8-0.3-1.1 0-2 0-0.3 0.1-0.6 0.2-0.4 0.2-0.6-0.2-0.4-0.4-1-0.2-0.5-0.1-1.1-0.3-3.5-0.4-6.8-0.1-3.4-0.1-6.8 0.1-3.5 0.2-7.1 0.1-3.7 0.4-7.7 0.2 0 0.2-0.3 0-0.2 0.4-0.1 0.1-2.2-0.2-4.3-0.2-2.2-0.2-3.7 0.3 1.2 0.5 2.8 0.1 1.7 0.2 3.4 0.1 1.8 0.2 3.6 0.1 1.8 0.3 3.4 0.2 0 0-0.5 0-0.6 0-0.7 0.2 0 0.3 0.1 0.1 0.1 0.2 0.2 0-0.7 0-1.1 0.1-0.5 0.1-0.9-0.2 0-0.2 0.1 0 0.2 0 0.5 0.1 0.1 0 0.3-0.1 0.2-0.4 0.2 0-0.7 0.2-1.4 0.2-0.7 0.2-1.4 0.1 0.1 0.1 0.5-0.1 0.2-0.1 0.5 0.4-1.1 0.1-2.2-0.2-1.2 0.2-2.3-0.2 0-0.2 0.1-0.1 0.1-0.4-0.1-0.1 0.2-0.1 0.7 0 0.5-0.1 0.8v-2.1q0.1 0 0.2-0.4 0.2-0.3 0.4 0.1v-1.7q-0.4-0.1-0.7 0-0.3 0.1-0.4-0.1 0.2-1.2 0.3-2 0.1-1 0.3-1.9 0.4 0.4 0.3 0.8 0 0.5-0.2 0.9-0.1 0.3-0.2 0.7-0.1 0.3 0.1 0.6 0.9-0.2 0.5-0.6-0.3-0.4-0.5-0.6 0.2-0.2 0.3-0.4 0.1-0.1 0.3 0.2-0.4-1.5-0.2-3.2 0.2-1.7-0.2-2.9-0.3 1.1-0.2 2.3 0.3 1.2 0 2.2-0.4-1.4-0.3-2.9 0.2-1.6 0.2-2.5h0.3q0-0.4 0.1-0.5l0.2-0.4q0.1-0.3 0-0.5-0.1-0.1-0.3-0.1 0.1-0.6 0.3-1 0.3-0.3 0-1.1-0.1 0-0.1 0.3 0.1 0.3-0.1 0.3-0.3-0.9 0-1.8 0.2-0.9 0.1-1.8-0.4 1.6-0.4 3.2-0.1 1.5-0.1 2.2 0 0.4 0.1 0.5 0.1 0-0.1-0.2-0.3-5.2 0.2-10.5-0.1-0.1-0.7-0.1-0.5 0-0.5-0.1-0.2 0.2-0.2 1.2-0.3-0.5-0.4-0.8-0.1-0.3-0.2-0.8 0.6-3.6 0.9-7.6 0.4-4-0.2-8.5-0.7 0.2-1.4 0.1-0.6-0.2-1.3-0.2 0.1-0.9 0.9-0.9-1.2-1.1-2.8-1.8-1.5-0.6-3.2-1.1-1.6-0.4-3.4-0.7-1.8-0.4-3.6-0.9-0.5 0.2-0.5 1 0 0.9-0.2 1.1-0.1 0-0.1-0.3 0-0.2 0.1-0.3-0.2 0.2-0.4 0.4 0 0.2-0.5 0.2-0.1-0.5-0.2-0.9-0.1-0.5-0.3-1.2-0.2-0.2-0.6-0.4-0.3-0.2-0.3-0.9-0.4 0.2-0.5 0.8 0 0.6 0.2 1-0.7-0.2-0.6-0.7 0.2-0.4 0-0.8-0.4-0.3-1.2-0.2-0.7 0-1.4 0.1-0.7 0-1.3-0.1-0.6-0.1-0.9-0.5 1-0.6 2.2-0.3 1.3 0.3 2.6 0.1 0.1-0.4-0.2-0.5-0.3-0.2-0.3-0.4 1-1.8 1-3.9 0-2.1 0.4-3.9 0.9-0.6 1.4 0 0.6 0.6 1.6 1-0.3 0.5 0 0.6 0.2 0.2 0.1 0.9 4.3-0.1 7.8-0.3 3.6-0.2 7.6-0.1 0-1.4-0.4-2.3-0.4-1.1-0.1-2.3 0.4-0.1 0.5 0.2 0.1 0.3 0.1 0.7 0 0.3-0.1 0.8 0 0.4 0.3 0.5 0.5-1.2 0.4-2.6 0-1.4 0.1-2.8 0.8 0.2 0.8 0.9 0.2 0.7 0.1 1.6-0.1 0.7-0.1 1.7-0.1 0.8 0.2 1.5 0.2 0.4 0.1 0.6-0.1 0.2-0.1 0.6v0.6q6.9 0.2 14.4 0.3 7.4 0 16.4 0.5 0.2-0.4 0.1-0.8 0-0.5-0.2-1-0.1-0.5-0.1-1 0.1-0.5 0.6-0.8 0.3 0.2 0.3 0.8 0.1 0.4 0.1 0.9 0 0.5-0.1 1 0 0.5 0.2 0.9 4.2 0.4 7.8 0.3 3.6-0.2 7.4-0.5 0.4-0.5 0.5-1.2 0.2-0.7 0.4-1.3 0.2-0.7 0.6-1.1 0.3-0.4 1-0.6-0.2 1.6 0.3 2.7 0.6 1 0.6 1.9 1.4 0.2 2.4 0 1.1-0.1 1.9 0.7-0.9 0.4-2 0.6-1.1 0.1-2.8 0.5 0.2 1.4 0.4 2.8 0.1 1.3 1.1 2-0.4 0.2-0.4 0.4-0.1 0.2-0.3 0.2 0 0.4 0.2 0.6 0.1 0.1 0.4 0.3-0.4 0.4-0.5 1.2-0.1 0.8-0.2 1.5-0.2-0.3-0.4-0.5-0.2-0.3-0.1-0.7-0.4-0.3-0.5 0 0 0.3-0.4 0.2v-0.9q-2.3-0.1-4.6 0.4-2.1 0.3-4.2 0.9-1.9 0.6-3.9 1.5-1.9 0.7-3.7 1.6-0.4 11.3-0.6 22.8-0.1 11.4-0.1 22.9-0.1 0.4-0.1 1.1 0.1 0.6-0.4 1.3 0.2 2.7 0.2 5.5 0 2.9 0.1 6.4 0 0.3 0.2 0.6 0.2 0.2 0.4 0.5zm-0.8-25.2q0 0-0.1 0.4 0 0.2-0.1 0.6-0.1 0.2-0.1 0.5 0 0.3 0.2 0.3-0.1-0.4 0-0.6 0.1-0.4 0.2-0.6 0.2-0.2 0.2-0.3 0.1-0.2-0.3-0.3zm-32.2-52.9q0.1-0.5 0-1.1 0-0.6-0.2-0.5 0 0 0 0.3 0 0.2 0 0.5 0 0.3 0 0.5 0 0.3 0.2 0.3zm0.5 3.6q0.9 0 2.3 0.1 1.4 0 2.8 0.1 1.4 0 2.6 0 1.3-0.1 1.9-0.3-0.7 0-2-0.1-1.2-0.1-2.5-0.2-1.4-0.1-2.8 0-1.3 0.1-2.3 0.4zm32 1.7v0.3q0.8 0 2 0.2 1.1 0.1 2.1 0.2 1.1 0 2 0 1 0 1.7-0.1-1.8-0.4-4.1-0.5-2.3-0.3-3.7-0.1zm-5.1 0.2q0.4 0 0.9 0.1 0.6 0.1 1.2 0.2 0.6 0 1.2-0.1 0.6-0.1 0.9-0.4-0.9 0-2 0.1-1 0.1-2.2 0.1zm20.4 0.5h0.8q0-0.4-0.4-0.3-0.4 0.1-0.4 0.3zm-51.2-1.3q-0.4 0.1-1 0.1-0.5 0-0.8 0.1 0.4 0 1 0.1 0.6 0.1 0.8-0.3zm51.8 2.2q-3.9-0.2-8 0-4.1 0.1-7.9-0.1 0.7 0.7 1.6 0.7 1 0 1.9 0 3 0.1 5.6 0.2 2.7 0 5.2-0.3 0.4 0.1 1 0.2 0.7 0 1.2-0.7-0.1-0.1-0.2-0.1-0.3 0-0.4 0.1zm-54.2-1q-2.7-0.1-5.4 0-2.6 0.1-4.4 0.3 3.8 0.1 7.5 0.3 3.8 0.1 7.4-0.5-1.3-0.3-2.5-0.2-1.2 0.1-2.6 0.1zm29.9 0.4q-4.3 0.2-9.1 0.3-4.9 0-8.6 0.1-0.1 0-0.6 0-0.3 0-0.7 0-0.4 0-0.6 0 0 0 0.4 0 1.8 0.3 2.7 0.2 1-0.1 2.4-0.1 2.1 0.1 4.7 0.2 2.7 0 5.5 0.1 2.9 0 5.8 0 3-0.1 5.6-0.3-2.4-0.1-4.3-0.2-1.8-0.3-3.2-0.3zm-44 1.2q0.4 0.2 0.5 0 0.2-0.2 0.2-0.4 0-0.4 0-0.6 0-0.3 0.2-0.4-0.1 0-0.4-0.2-0.2-0.3-0.4-0.5-0.1 0.7-0.3 1.1 0 0.3 0.2 1zm52.3 0.5v1.5q1.4-0.1 3.3 0 1.8 0 3.9 0.1 2 0.1 4 0.2 2 0 3.8-0.2 0.4 0 1-0.1 0.6-0.1 0.8-0.8-1.9-0.4-4-0.4-1.9 0-4.1 0-2.1 0-4.3 0-2.2 0-4.4-0.3zm-31.7-0.2q0 0.7-0.1 1.3 0 0.5 0.4 0.8 7-0.1 13.9-0.1 6.9-0.1 13.7-0.1 0.6 0 1.7 0.1 1 0.1 1.2-0.3v-1.5q-7.6-0.2-15.2-0.2-7.7-0.1-15.6 0zm-15-0.4q0.5 0 1 0.1 0.6 0.1 0.6-0.4-0.4 0-0.9 0.1-0.4 0.2-0.7 0.2zm14.4 0.3h-0.3q0 0.2 0 0.8 0.1 0.5 0.3 0.1-0.2-0.4-0.1-0.5 0.1-0.2 0.1-0.4zm-16.4 0.5q1.2 1.2 3.1 1.5 1.9 0.4 4.2 0.4 2.2 0 4.4-0.1 2.2-0.1 4 0.1 0.1-0.6 0.1-1.2 0-0.7 0-1.2-4.5-0.1-8.3 0.3-3.7 0.3-7.5 0.2zm52.2 2.3q-0.9 0-2-0.2-1.1-0.2-1.6 1 1 0.1 2.5 0.2 1.4 0 3 0 1.5-0.1 3-0.2 1.5-0.1 2.6-0.4 0.7 0.1 1.3 0 0.6-0.1 0.9-0.8-2 0.2-4.7 0.2-2.7 0-5 0.2zm-56.1-1.2l-0.1 0.3q0.2 0 0.6 0 0.3 0 0.4-0.2-0.2-0.1-0.5-0.2-0.2-0.1-0.4 0.1zm49.5 1.3q-2.9 0.1-6.2 0-3.3-0.2-6.6 0-3-0.1-5.7 0.1-2.7 0-5.4 0.2-1.1 0-2.4-0.1-1.2-0.1-2.4 0.6 5.2 0.4 10.7 0.1 5.6-0.3 11.4-0.2 2.1-0.1 4.2 0.1 2.2 0.3 4-0.1 0.1-1-0.5-0.9-0.6 0-1.1 0.2zm-31.9 0.4q-1.8-0.1-3.4-0.1-1.5 0-2.6 0.3 0.7 0.4 1.6 0.6 1 0 2.1 0 1.2-0.1 2.4-0.2 1.2-0.2 2.3-0.3-0.3-0.4-1.1-0.3-0.6 0-1.3 0zm39.4 1.3q-1.3 0-2.5 0.1-1.2 0-1.6 0.6 1.7 0.6 2.8 0.3 1.2-0.3 2.5-0.7 0.5 0.4 1.3 0.2 1-0.3 1.4-0.7-1.1-0.1-2.1 0-0.8 0-1.8 0.2zm-4.1-0.1q0 0.4 0.6 0.2 0.2 0 0.6-0.1-0.3-0.1-0.8-0.2-0.4-0.2-0.4 0.1zm-30.9 0.1q-0.2 0.4-0.2 0.9 0.1 0.4 0.1 0.9 4.4 0.1 9.3 0.1 4.8 0 9.6-0.2 2 0 3.8-0.3 1.9-0.2 3.5-0.1 0.9-0.2 1.7 0 0.8 0.1 1.5-0.6-0.4-0.1-0.3-0.1 0.2 0 0.3-0.5-7.3-0.6-14.8-0.2-7.3 0.2-14.5 0.1zm-7.2 0.7q1.6 0.5 2.5 0.9 1 0.3 2.6 0.1 0-0.4 0-0.9 0.1-0.5 0.1-0.9-0.5 0-0.6 0.3-0.1 0.4-0.4 0.6-0.1-0.4-0.7-0.6-0.5-0.1-1.2-0.1-0.6 0-1.2 0.2-0.7 0.2-1.1 0.4zm37.6 2.2q0.7 0 0.6-0.5-0.1-0.5-0.2-0.7-0.3 0.2-0.2 0.6 0.1 0.3-0.2 0.6zm2.8-0.5q0.8 0 0.8-0.6-0.4 0-0.6 0.1-0.1 0.2-0.2 0.5zm-17.4-0.2q-3.1 0.2-6.4 0.4-3.2 0.3-6.1 0.2-1 0-2.1-0.1-1-0.1-1.3 0.6 0.5 0.7 1.1 0.5 0.6-0.2 1.1-0.1 5.6-0.1 12.1 0.1 6.5 0.2 12.4-0.1 0.1-0.4 0.3-0.5 0.4-0.1 0.7-0.1 0.4 0 0.6 0 0.4 0 0.4-0.2-0.1-0.3 0-0.4 0.3-0.3 0-0.6-2.9-0.1-6 0.1-3.2 0.3-6.8 0.2zm2.3 2.4q-3.4 0.2-7-0.2-3.5-0.4-7.3 0.2 1.3 0.5 3.2 1 1.9 0.5 4 0.4 2.7 0 5.5 0.1 2.9 0 6.1-0.1 2.2 0 3.8 0 1.7 0 2.2-1.7-2.7-0.3-5.3 0.1-2.4 0.4-5.2 0.2zm-16.5-0.1q0 0.7 0.6 0.7 0.3-0.3 0.7-0.4 0.4 0 0.3-0.2-0.3 0.2-0.7 0.1-0.4-0.1-0.9-0.2zm28.5 13q0-0.4 0.1-0.9 0.1-0.6-0.4-0.6 0 1-0.1 1.2 0 0.2 0.6 0.9-0.2 0.2 0 0.4 0.1 0.1-0.6-0.1v2.1q1-0.2 0.9-1.1 0-1 0.1-1.9 0.3-2.9 0.3-6 0.1-3.1-0.1-5.6 0-0.4-0.2-0.4-0.4 1.3-0.5 2.7 0 1.3 0.1 2.8 0 1.5 0 3.1 0 1.6-0.2 3.4zm-22.2-9.6q4.1-0.1 7.7 0.1 3.6 0.2 6.9 0.1 0.9-0.3 2-0.2 1 0 1.7-0.7-0.5-0.6-1.6-0.6-1 0-1.7 0-4.8-0.4-9.8 0-5 0.2-9.1 0 0.4 0.8 1 1.2 0.6 0.2 1.3 0.2 0.7-0.1 1.5-0.4 0.8-0.4 1.4-0.8-0.3 0.4-0.7 0.6-0.4 0.1-0.6 0.5zm-8.4 0.5q0.4-0.2 1-0.1 0.7 0.1 1.4-0.1-0.3-0.2-0.9-0.4-0.4-0.3-0.8-0.4-0.4-0.1-0.6 0.1-0.2 0.2-0.1 0.9zm15.6 0.7q-2.5-0.2-4.8-0.4-2.3-0.3-4.2 0.2-0.3 0-0.7 0.4-0.3 0.2-0.8 0.6-0.3 0.2-0.6 0.6-0.1 0.2-0.1 0.3 6.4 0 11.7 0.2 5.3 0.1 10.8-0.4 0.2-0.5 0.1-0.8-0.1-0.3-0.1-1-2.5-0.1-5.5 0.1-2.9 0-5.8 0.2zm-15.9 0.2q0 0.4 0.1 0.6 0.2 0.2 0.2 0.8 1.5 0.3 3.1-0.2 1.6-0.5 2.3-1.5-2.1 0-3.1 0.2-1 0.1-2.6 0.1zm24.4 2q-2.5 0-5.2 0-2.7 0.1-5.6 0.3-2.8 0.1-5.5 0.2-2.8 0.1-5.2 0-0.2 0.4-0.6 0.7-0.4 0.2-0.6 0.6 6.1-0.2 11.5-0.1 5.4 0.2 10.3-0.1 0.5 0 1.1 0.1 0.7 0 1.2-0.1 0.6-0.1 1-0.4 0.5-0.2 0.6-0.7-0.4-0.3-1.4-0.4-0.9-0.1-1.6-0.1zm-24.2 0.4q0 0.4-0.1 1-0.1 0.5 0.4 0.8 1.5-0.6 1.5-2.2-0.2 0.3-0.8 0.2-0.6-0.1-1 0.2zm-1.6 5.5q0-1.5-0.2-2.6-0.1-1.2-0.6-2.1 0 0.4-0.1 1.2-0.2 0.8-0.3 1.6 0 0.7 0.2 1.3 0.2 0.6 1 0.6zm1.5-2.9q6.4 0.5 13.2 0.8 6.8 0.3 14.3 0.3 0-0.5 0-0.9 0.1-0.5 0.1-0.9-7 0.2-14 0.2-7 0-13.6 0.5zm6 1.1q-1.6 0-3.2 0-1.4 0-2.8 0.7 0.2 0.3 0.1 0.5-0.1 0-0.1 0.5 5.4 0.1 10.9 0.4 5.5 0.2 10.8 0.3 0.9-0.1 2-0.1 1.2 0 2.1 0 1.1-0.2 1.6-0.5 0.6-0.3 0.1-1-4.7-0.2-10.5-0.3-5.6-0.3-11-0.5zm-8.8 2.4v2.8q0.4 0.1 0.6 0 0.2-0.3 0.6 0 0-0.7-0.1-1.2-0.1-0.5 0.1-1.2-0.4 0-0.6-0.2-0.2-0.2-0.6-0.2zm4.5 1.1q-0.4-0.3-0.5-0.6-0.1-0.3-1 0-0.2 0.4 0 1.1 0.3 0.6 0 1.3 3.6-0.3 7-0.2 3.4 0 6.8 0.2 3.5 0 6.8 0 3.4 0 6.9-0.3v-1.8q-3 0.2-6.4 0.2-3.4-0.1-6.8-0.1-3.4-0.1-6.7-0.1-3.2 0-6.1 0.3zm2 2.7q-0.9 0-1.8-0.1-0.8-0.1-1.8 0.4v1.1q6.2-0.1 13.4 0 7.4 0.1 14.1 0.1v-1.5q-6-0.2-11.9-0.1-5.8 0-12 0.1zm26.9 2.2q0.3-0.7 0.2-1.2-0.1-0.5 0.2-1.2-0.7 0.2-0.6 1.1 0 0.9 0.2 1.3zm-0.2 0q-0.3 0.4-0.2 1 0.1 0.4 0.1 0.8 0.4 0 0.2-0.3-0.1-0.4 0-0.6 0 0.2 0.2 0.4l0.2 0.2q0-0.5 0.1-1.1 0.1-0.6 0-0.4 0 0.4-0.3 0.4-0.2-0.2-0.3-0.4zm-11.7-0.1q-1.6 0.1-3.7 0.1-2.2 0-4.5 0-2.3-0.1-4.6-0.1-2.2 0-4 0.2-0.4 0-0.9 0-0.5-0.1-0.6 0.6 3.8 0.5 8.3 0.6 4.7 0 9 0.2 2.4 0.1 5.1 0.4 2.9 0.3 5.1-0.2-0.3-0.4-0.4-0.7 0-0.4 0.1-0.8-2.4-0.3-4.6-0.1-2.1 0.2-4.3-0.2zm-18.3 2q0 0.4 0 0.9 0.1 0.4 0.2 0.6 6.6-0.1 12.2 0.4 5.7 0.3 11.1 0.2 0.4 0 1.1 0.1 0.8 0.1 1.3 0.1 0.6-0.1 1-0.3 0.4-0.3 0.2-1-6.9-0.9-13.9-0.8-6.9 0-13.2-0.2zm29.9 10.3q0.1-1 0.1-2.3 0.1-1.3 0-2.5 0-1.4 0-2.6 0-1.2-0.1-2.1-0.4 2.2-0.3 4.7 0.1 2.4 0.3 4.8zm-29.8-7.9v2.1q6.6-0.2 13.5 0.1 6.8 0.4 13.8-0.3 0-0.2-0.2-0.5-0.1-0.3-0.1-0.7-6.8-0.7-13.3-0.6-6.4 0.1-13.7-0.1zm1.8 4q-0.5-0.3-0.8-0.5-0.4-0.2-1-0.2 0 0.4 0.1 0.8 0.2 0.2 0.2 0.7 3.2-0.1 6.7-0.1 3.6 0 7.1 0.1 3.6 0.1 6.9 0.1 3.3 0 5.9 0 0-0.7 0.2-1.1 0.3-0.3 0.1-0.7-5.6 0.1-12.2 0.1-6.5 0-13.2 0.8zm26 0.9q-0.2-0.2-0.2-0.8 0.1-0.7-0.1-0.7 0 0.4-0.1 0.9 0 0.6 0.4 0.6zm2.9 3q0-0.6 0.1-1.3 0.1-0.8-0.3-1.1 0 0.5 0 1.2 0 0.8 0.2 1.2zm-20-2.3q-1.5 0-3.4 0-1.9 0-3.4 0.2-0.6 0-1.3-0.1-0.6-0.1-1.2-0.1-0.5 0-0.9 0.3-0.5 0.2-0.6 0.7 0.4 0.7 1 0.5 0.7-0.2 1.1-0.1 3.3 0.2 6.3 0.3 3 0.2 5.9 0.4 3 0.1 6 0.2 3.1 0 6.6 0 0.2-0.5 0.2-0.8 0.1-0.4 0.2-1-4.3-0.6-8.4-0.6-4 0-8.1 0.1zm16.7 1.4q0-0.3 0.2-0.7 0.3-0.5-0.1-0.5 0 0.2-0.2 0.6-0.1 0.3 0.1 0.6zm-24.5 0.6q-0.7 0.4-1.4 0.3-0.7 0-1.6 0.2 0 0.7 0.1 1 0.1 0.4 0.1 0.8 6.9-0.3 13.8 0.2 6.8 0.4 13.1-0.1 0.1-0.4 0-0.8-0.2-0.3-0.2-0.8-2.9-0.1-6.1-0.1-3.1 0-6.1 0-3.1-0.1-6.1-0.2-3-0.1-5.6-0.5zm24.7 2q-0.1-0.1 0-0.4 0.2-0.3-0.2-0.8 0 0.5-0.1 1.1-0.1 0.6 0.3 0.1zm2.1 0.5q0-0.3 0-0.8 0-0.6-0.2-0.2 0-0.1 0.1 0.5 0.1 0.6 0.1 0.5zm1.2 2.4q-0.4-1.1-0.2-1.6 0.3-0.5-0.4-1.2 0.2 0.4 0.2 0.8 0 0.3-0.1 0.8-0.1 0.3 0 0.7 0.1 0.2 0.5 0.5zm-30.8-1.7q0 0.6 0 1.2 0 0.5-0.1 0.9 7-0.5 13.8-0.2 6.8 0.4 13.2 0.3 0-0.7-0.1-1.3-0.2-0.6-0.2-0.9-2.7 0.2-5.9 0.1-3.2-0.1-6.7-0.1-3.4-0.2-7-0.2-3.6-0.1-7 0.2zm27.5 1.8q0-0.1 0-0.9 0.1-0.9-0.3-0.9 0.3 0.5 0.2 1.1-0.1 0.6 0.1 0.7zm2 0.5q0.1-0.3 0.2-1 0.1-0.7-0.1-0.6 0 0.5-0.2 1.1-0.1 0.6 0.1 0.5zm-29.6 0.6q0.2 0.5 0.1 1.2 0 0.6 0.2 1 3.3-0.3 6.7-0.2 3.4 0 6.7 0.1 3.3 0 6.6 0 3.3 0 6.7-0.4v-1.6q-6.6-0.3-13.4-0.4-6.6-0.1-13.6 0.3zm27.6 1.7q0-0.5-0.1-1.1 0-0.6-0.3-0.5 0 0.3 0 1.1 0.1 0.6 0.4 0.5zm2.9 0.3q0-0.4 0-0.8 0-0.4-0.3-0.4 0 0.3-0.1 0.8 0 0.4 0.4 0.4zm-0.5 6.3q0.5-1.2 0.5-2.7 0-1.5 0-2.6-0.3 0.6-0.4 2.4-0.1 1.7-0.1 2.9zm-29.8-5.5q-0.2 0.4-0.1 0.9 0.1 0.4 0.1 1.1 3.3-0.1 6.9-0.1 3.7 0 7.2 0 3.5-0.1 6.8-0.1 3.2-0.1 5.8-0.3v-1.2q-5.4-0.3-12.5-0.3-7-0.1-14.2 0zm12.3 2.4q-1.8-0.1-3.8 0.3-2 0.4-3.8 0.4-1.4 0.2-2.7 0-1.3-0.2-2.1 0.7 0.7 0.7 1.4 0.6 0.7-0.1 1.4-0.1 5.6-0.2 11.8 0.1 6.2 0.3 12.1 0.1 0-0.4 0-0.8 0-0.6 0.1-1.2-3.6 0.1-7.1 0-3.4 0-7.3-0.1zm11.3 3q-2.2-0.1-5.3-0.3-3.1-0.2-5.8 0-2.7-0.1-6.3-0.1-3.5-0.1-6.3 0.4 0.2 0.6 0.1 1.6-0.1 0.9 0.2 1.6 4.7 0.2 10.2 0.2 5.4-0.1 11.3-0.2 1.1 0 2.5 0.2 1.4 0.1 2.6-0.4-0.1-0.4-0.5-0.6-0.3-0.2-0.7-0.3-0.5-0.1-0.9-0.1-0.3 0-0.6 0-5.6-0.3-11.2-0.4-5.5-0.1-9.7 0.2-0.7 0-1.6 0.2-1 0.1-1.4-0.6 0.2-0.7 0.9-0.6 0.7 0.1 1.1 0.1 2.9-0.2 5.4-0.2 2.7 0 5.3 0.1 2.7 0.1 5.4 0.2 2.8 0.1 6.1 0.2 0.4 0 1.2 0.1 0.7 0 1.2-0.4 0-0.5-0.4-0.7-0.3-0.2-0.8-0.2-0.5-0.1-1.1 0-0.5 0-0.9 0zm-27.3 1.9q0 0.3-0.1 0.7 0 0.4 0.7 0.3 0-0.5-0.2-1.4-0.1-0.9 0-1.6 0 0.2 0 0.7 0 0.5 0 0.9 0 0.4-0.1 0.6-0.1 0.2-0.3-0.2zm33.6 6.6q0.1-1.6 0.2-3.8 0.2-2.2-0.3-4-0.1 1.8-0.1 4.1 0 2.3 0.2 3.7zm-29.8-4.3q0 0.4 0 0.8 0.1 0.4 0.3 0.6 3.1 0.2 6.5 0.1 3.5-0.1 7 0-0.3 0.3-0.7 0.4-0.4 0-0.8 0-0.4-0.1-0.9-0.1-0.3 0-0.4 0.2 4.7 0.2 8.3 0.3 3.6 0 7.6-0.5 0-0.2-0.1-1 0-0.8-0.4-1.1-3.8 0-7.2 0.1-3.3 0-6.5 0.1-3.1 0-6.3 0.1-3.1 0-6.4 0zm-3.9 1.9h0.6q-0.4-0.2-0.4-0.3 0.1-0.2 0.3-0.4 0.2-0.1 0.3-0.4 0.2-0.3 0.1-0.7-0.2-0.1-0.4-0.3-0.2-0.2-0.5 0.1-0.2 0.6-0.2 0.9 0 0.2 0.2 1.1zm1.5-0.6q0.2-0.4 0.2-0.5 0-0.2 0.4-0.6-0.3 0-0.5 0-0.2-0.1-0.4-0.1 0 0.3 0 0.7 0.1 0.3 0.3 0.5zm23.3 1.6q-2.4 0-4.9-0.1-2.5-0.1-5-0.1-2.5-0.1-4.9 0-2.5 0.1-5 0.6 0.4 0 0.7 0.4 0.2 0.4 0.5 0.8 6.1-0.4 12.5-0.1 6.4 0.3 12.3 0.1 0-0.4 0-0.9 0.1-0.5 0.1-0.9-1.8 0-3.4 0.2-1.5 0-2.9 0zm-24.9 0.2q-0.4 6.2-0.1 11.8 0.3 5.6 0.5 10.9 0.4 0 0.9 0 0.4 0 0.6-0.1-0.7-0.1-1.1 0-0.2 0-0.4-0.7 0.4-0.6 1.2-0.5-0.2-0.8 0-1.1 0.3-0.3 0.3-0.7-0.1-0.3-0.5-0.3-0.4 0-0.6-0.4 0.2-0.4 0.6-0.4 0.5 0 0.5-0.5-0.1-0.4-0.3-0.8-0.1-0.4-0.5-0.7 0.1-0.4 0.3-0.5 0.4-0.2 0.4-0.6-0.2-3 0-5.8 0.2-2.8-0.4-5.4 0.5-0.9 0.1-2.1-0.2 0-0.7 0.1-0.3 0.1-0.5-0.1v-0.5q0.2-0.5 0.5-0.3 0.3 0.2 0.7-0.1-0.2-0.4-0.4-0.6-0.2-0.2-0.1-0.8-0.2 0-0.6 0-0.3 0-0.4 0.2zm29 2.3q-3.1-0.2-5.9-0.2-2.9-0.1-5.6 0-2.6 0-5.5 0-2.7 0.1-5.7 0.2-0.3-0.2-0.3 0.2 0.1 0.3-0.3 0.1-1 0-1.8-0.4 0 0.5 0 0.8 0 0.3-0.1 0.7 2.8 0.3 5.4 0.2 2.7-0.2 5.7 0 3.8 0.2 7.1 0 3.4-0.3 6.6-0.1 0.5-0.2 1.4 0 0.8 0.1 1.1-0.6 0-1-0.9-0.9-0.7 0-1.2 0zm-0.4 2.1q-0.7-0.1-1.5-0.1-0.8 0-1.5 0-4.5 0.3-9.3 0.3-4.8-0.1-10.4 0.1-0.4 0-1-0.1-0.6-0.1-0.8 0.6 0 0.5 0.7 0.6 0.7 0.1 1.1 0.1 0.4 0 1.1-0.2 0.7-0.1 1.6 0 2.2-0.2 5.1 0.1 2.9 0.3 5.7 0.1 2.2 0.1 4.7 0 2.5-0.1 4.3 0 0.9 0 1.7 0 1 0 1.2-0.9-0.4-0.7-1.2-0.6-0.8 0-1.5 0zm5.6 3.6q0-0.1 0-0.8 0-0.8-0.2-1.2 0.2 0.7 0 1.3-0.2 0.6 0.2 0.7zm-11.2-1.4q-2 0.2-4.5 0.2-2.4-0.1-4.9-0.1-2.5-0.1-5-0.1-2.4-0.1-4.3 0.1-0.2 0.7-0.3 1.1 0 0.3 0 1 7-0.2 13.5-0.2 6.6 0 13.8-0.3 0-0.4-0.1-0.9 0-0.5-0.2-0.9-2.5 0.2-4.3 0.1-1.8-0.2-3.7 0zm-19 3.1q-0.1 0.4-0.1 1.2 0.1 0.6 0.4 0.9 2.9-0.6 6.3-0.7 3.3-0.1 6.7 0 3.5 0 7 0.1 3.5 0 6.9-0.2 0-0.5 0-0.9 0.1-0.4 0.1-0.6-7-0.3-13.6-0.1-6.5 0.3-13.7 0.3zm8 2.4q-1.6-0.1-3.5-0.2-1.8-0.1-3.4 0.6 3.3-0.2 6.6 0.1 3.3 0.1 6.5 0.5 3.2 0.3 6.5 0.6 3.3 0.2 6.6 0 0.1-0.4 0.1-0.9 0-0.4 0-0.7-4.9-0.2-9.6-0.2-4.6 0-9.8 0.2zm11 2.3q-2-0.3-4-0.6-2.1-0.5-4.6-0.5-2.5-0.1-5 0.1-2.5 0.2-5.2-0.1 0 0.6-0.1 1.4-0.1 0.7 0.3 0.7 6.1-0.3 12.3 0.3 6.4 0.5 12.8 0 0.3 0 0.6 0.1 0.4 0 0.6-0.1 0.4-0.1 0.6-0.3 0.1-0.3 0-0.9-2.2-0.4-4.2-0.2-2.1 0.2-4.1 0.1zm6.5 2.3q-5.8-0.2-12.4-0.2-6.6 0-13 0.1v1.4q5.9 0 11.7 0 5.9-0.1 11.3-0.2 0.6 0 1.3 0.2 0.8 0 1.5 0 0.7 0 1.1-0.2 0.4-0.4 0.3-1.1 0-0.1-0.4-0.2-0.3-0.1-0.7-0.1-0.3 0-0.6 0.1-0.1 0.1-0.1 0.2zm-25.2 2.5q-0.2 0.5-0.1 1 0.1 0.4 0.1 0.8 6.7-0.4 13.5-0.4 6.9 0 13.5-0.9-0.2-0.3 0-0.7 0.1-0.4-0.3-0.3-3.8 0.2-7 0.2-3.3-0.1-6.5-0.1-3.2-0.1-6.4 0-3.2 0.1-6.8 0.4zm8.9 2.4q-4.7-0.1-8.9 0.6 1.6 0.4 3.7 0.2 2.2-0.3 3.8-0.2 2.9 0.1 5.1 0.2 2.3 0 5 0.1 2.3 0.1 4.7 0.3 2.4 0.2 4.6-0.7v-1q-4.1-0.1-8.8 0.1-4.6 0.1-9.2 0.4zm20.9 2.9q0-0.2 0.1-0.6 0.1-0.6-0.3-0.6-0.3 0.2-0.3 0.7 0 0.5 0.5 0.5zm-29.6-1.1q0 0.7-0.2 1.6-0.2 0.7 0.2 1.2 2.1-0.4 4.8-0.6 2.7-0.1 5.6-0.1 2.9-0.1 5.8-0.1 2.9 0 5.3-0.2 0.6-0.1 1.7 0 1.1 0 2-0.1 1-0.1 1.6-0.4 0.6-0.3 0.1-1.1-6.5-0.2-13.2-0.3-6.7-0.3-13.7 0.1zm-3.9 2.9q0.2-0.4 0.2-1 0.1-0.7 0.1-1.6h-0.3q-0.2 0.7-0.1 1.4 0.1 0.8 0.1 1.2zm1.2-0.1q-0.2-0.5 0-0.9 0.1-0.4-0.3-0.7 0.1 0.4 0 0.7 0 0.3-0.1 0.4 0 0.2 0 0.4 0 0.1 0.4 0.1zm32.2 1.3q-0.2-0.4 0-1 0.2-0.6-0.2-0.8 0 0.5-0.2 1.1 0 0.5 0.4 0.7zm-6.5-1.7q-2.1 0.2-4.9 0.3-2.6 0.1-5.4 0.1-2.9 0.1-5.7 0.3-2.7 0.1-5 0.3-0.5 0-1.2 0-0.8-0.1-0.9 0.8 0.3 0.4 0.6 0.5 0.5 0 1-0.1 0.5 0 1-0.1 0.6-0.1 1-0.1 2.7-0.2 5.7-0.1 2.9 0.1 5.9 0.2 3.1 0 6-0.1 3-0.1 5.7-0.6 0.3-0.4 0-0.6-0.1-0.2 0.1-0.6-1.2-0.1-2.1-0.1-0.9 0-1.8-0.1zm-26.7 2.7q0.2 0.1 0.5 0.1 0.2 0 0.4 0 0-0.3 0.1-0.5 0.1-0.1-0.1-0.1-0.2 0.4-0.3 0.1-0.2-0.3 0-0.5-0.4-0.2-0.4 0.2 0 0.4-0.2 0.7zm24.8 0.1q-2.3 0-4.9 0-2.7-0.1-5.5-0.1-2.7 0-5.5 0.1-2.7 0.2-5.3 0.6 0 0.1-0.1 0.5 0 0.2 0 0.6 7 0 13.6 0 6.7 0.1 13.6-0.1 0.4-0.2 0.1-0.6-0.2-0.5 0-1.2-1.8 0.2-3.3 0.1-1.5-0.2-2.7 0.1zm-24.8 0.7q0.2 2.2 0.2 4.3 0 2 0.4 3.9 0-0.5 0-1.1 0.1-0.6 0.2-1.2 0.2-0.6 0.2-1.2 0-0.6-0.2-1 0.3-0.4 0.2-1 0-0.6-0.4-1.1 0.1-0.2 0.3-0.5 0.2-0.3 0-1 0-0.2-0.3 0.1-0.1 0.2-0.6-0.2zm28.1 2q-1-0.1-1.8-0.1-0.9 0-1.6 0-4.5-0.2-9.7-0.4-5.1-0.4-9.7 0.2-0.4 0.2-1.1 0.2-0.6-0.1-0.4 0.6 2 0.3 5.1 0.4 3.2 0.2 6.8 0.3 3.6 0 7.2 0 3.6-0.1 6.6-0.3 0.3 0 0.9 0.1 0.7 0.1 0.7-0.6-0.5-0.7-1.4-0.5-1 0.1-1.6 0.1zm-1.6 1.7q-0.4 0-0.1 0.2 0.3 0.1-0.1 0.1-5.5 0.1-11.1 0-5.7-0.1-11.7-0.3 0 0.4 0 0.9 0 0.5 0 1.2 3.6-0.6 7.2-0.6 3.6-0.1 7 0.1 3.5 0.1 6.9 0.3 3.4 0.1 6.6-0.2 0-0.3 0-0.7 0-0.4 0.1-0.8-1.4-0.3-2.5 0-1 0.1-2.3-0.2zm6.5 1.4q0-0.2 0.1-0.5 0.2-0.5 0-0.7-0.1 0.4-0.2 0.9-0.1 0.5 0.1 0.3zm-5 1.4q-1.8-0.1-4.4-0.2-2.5-0.1-5.4-0.2-2.9-0.2-5.8-0.2-2.9 0-5.4 0.3-0.4 0.1-1.1 0.1-0.7 0-1.2 0.2-0.6 0.1-1.1 0.4-0.3 0.3-0.2 1 3.3-0.3 6.9-0.2 3.6 0 7.2 0.1 3.6 0.1 7 0.2 3.5 0.1 6.6 0.1-0.1-0.5 0-0.7 0.1-0.4 0.1-0.8-0.7 0-1.5 0-0.8-0.1-1.7-0.1zm0.2 2.1q-0.2 0.4-1 0.3-0.8-0.1-1.7-0.1-2.8-0.1-5.6-0.1-2.6-0.1-5.3-0.1-2.7 0-5.5 0.1-2.7 0.2-5.7 0.7 0 0.5 0.4 0.7 0.5 0.2 1.1 0.2 0.6-0.1 1.2-0.2 0.6-0.2 0.9-0.3 2.3 0.2 5.3 0.5 3 0.1 6.3 0.2 3.3 0.1 6.6 0.1 3.2 0 5.9-0.2 0-0.1 0-0.6 0-0.6-0.2-0.8-1-0.1-1.6 0.1-0.7 0.2-1.1-0.5zm1.4 3.9h0.3q-1.4-0.4-3.1-0.6-1.7-0.2-2.9-0.4-1.6 0.1-3.7 0.1-2-0.1-4.3-0.2-2.2-0.2-4.5-0.3-2.2-0.1-4.3-0.1-0.7 0.7-1.6 0.9-0.9 0.2-1.4 0.9 3.1 0 6.5 0.3 3.5 0.2 6.9 0.3 3.5 0.2 6.8 0.3 3.3 0 6.2-0.3-0.6 0-1.6-0.2-0.9-0.2-2-0.3-1.1-0.1-2.3-0.1-1.1 0-1.9 0.1-0.4 0-0.7 0.1-0.3 0.1-0.7 0.1-0.2 0-0.5-0.2-0.2-0.1-0.2-0.6 1.2-0.1 2.2 0 0.9 0 1.8 0.1 0.9 0 1.8 0 0.9-0.1 2-0.2 0.4 0.2 0.1 0.4-0.3 0.2 0.2 0.2 0-0.6 0.2-0.4 0.3 0.3 0.7 0.1zm-0.7 1.8q-3.1-0.1-6.6-0.1-3.5-0.1-7-0.1-3.4-0.1-6.6-0.1-3.3-0.1-6.1-0.1v1.8q7.7-0.3 15.1 0 7.5 0.2 14.2 0.1-0.3-0.2-0.3-1.2-0.7-0.1-1.4-0.2-0.6-0.1-1.3-0.1zm4.2 1.5q0.4 0.1 1.8 0.3 1.5 0.1 2.4-0.4-0.9-0.5-1.7-0.8-0.8-0.4-1.9-0.4 0 0.6-0.3 0.9-0.1 0.3-0.3 0.4zm-32.6 0.2l0.3-0.3q0-0.2 0-0.6 0.1-0.3-0.3-0.3 0 0.2-0.3 0.4-0.2 0.3 0.3 0.8zm33.2 0.9q-0.3 0.6-0.2 1 0.3 0.3 0.1 0.7 2.9 0.1 5.7 0.3 2.9 0.1 5.1-0.3-2.2-1.2-5.1-1.7-2.7-0.5-5.6 0zm-31.1-0.3q0.2 0.4 0.1 1-0.1 0.6 0.1 1 7.5-0.2 15.2 0 7.7 0 13.8 0 0-0.5-0.1-0.8-0.2-0.3-0.1-1-7-0.2-14.3-0.3-7.3-0.2-14.7 0.1zm-3.1 0.8q-0.8-0.5-1.8-0.5-0.8 0-1.7 0.3-0.8 0.3-1.6 0.8-0.8 0.4-1.5 0.7 1.8 0.1 4.1 0 2.2-0.1 4-0.1 0-0.4 0.1-0.9 0.1-0.6 0-0.8-0.7-0.3-1 0-0.1 0.3-0.6 0.5zm-8.9 0.1l-0.4 0.2q0.4 0.1 0.9-0.1 0.4-0.1 0.6-0.4-0.4 0-0.5 0.1-0.2 0-0.6 0.2zm-5.8 0.1q0 0.5 0.2 0.8 0.3 0.2 0.4 0.4 0.3-0.2 0.5-0.2 0.3-0.1 0.7-0.4 0.7-0.1 1.6-0.3 0.8-0.3 0.8-0.4-0.9 0.1-2.2 0-1.3 0-2 0.1zm61.6 2.2q-3.3-0.3-6.7-0.2-3.3 0.1-5.8 0.2v0.9q7.3 0.2 14.9-0.3 0-0.5-0.3-0.7-0.4-0.3-0.8-0.3-0.3-0.1-0.8 0.1-0.4 0.1-0.5 0.3zm-18.5-0.1q-2.7 0-5.9 0-3.2-0.1-6.5-0.2-3.2-0.1-6.6-0.2-3.2-0.1-6.1-0.1 0 0.5-0.1 0.9 0 0.4 0 0.7 7.2-0.1 15-0.1 7.8-0.1 14.4-0.3-0.3-0.6-0.8-0.8-0.5-0.2-1.1-0.2-0.6 0-1.3 0.2-0.6 0.1-1 0.1zm-26.4 1.1q0.1-0.8-0.5-1.2-1.2 0.2-3.1 0.1-1.8-0.1-3.8-0.1-1.8 0-3.6 0.3-1.7 0.3-2.8 1.4 1.7-0.1 3.7-0.1 2-0.1 3.9-0.2 1.9 0 3.5 0 1.7-0.1 2.7-0.2zm32.3 1.1q2.2 0.3 4.4 0.4 2.3 0 4.6 0.1 3.2 0.2 5.9-0.8-3.1-0.5-7.3-0.3-4.2 0.2-7.6 0.6zm-9-0.3q-5.1 0.2-9.9 0.1-4.8-0.1-9.5 0-0.7 0.3-1.6 0.2-0.9-0.1-1.1 0.3 4.3 0.2 8.9 0 4.6-0.2 9.4-0.3 1.2 0 2.5 0.2 1.5 0.1 2.9 0.1 1.5 0 2.9 0 1.3 0 2.4-0.4-1.3-0.5-3.1-0.4-1.7 0.1-3.8 0.2zm-39.7-0.4q0.2-0.2 0.5-0.2 0.4-0.2 0.7-0.6-0.4 0-1 0.2-0.5 0.2-0.2 0.6zm60.1 1.9q-2.5 0.2-5.6 0.1-3-0.2-5.5 0.2-0.2 0.4-0.1 0.5 0.2 0 0.5 0 0.2 0 0.3 0.1 0.2 0-0.2 0.3 0.5 0 1.2 0.1 0.7 0.1 1-0.6 2.2 0 4.9 0.2 2.7 0.2 5-0.1 0.7 0.1 1.4 0 0.7 0 1-0.5-0.4-0.6-1.6-0.6-1.1 0.1-2.3 0.3zm-44.6-0.5q-0.2-0.1-0.1-0.4 0.1-0.5-0.2-0.3-4.3 0.2-8.3 0.1-4-0.2-6.9 0.4 0 0.4 0.1 0.8 0.1 0.3 0.1 0.7 4.5-0.1 8.8-0.5 4.3-0.4 7.7-0.8-0.3 0-0.3-0.6-0.4-0.3-0.6 0.1-0.1 0.2-0.3 0.5zm29.6 0.4q-3.8 0-7.3 0-3.4-0.1-6.7-0.1-3.3 0-6.7 0.2-3.3 0.2-6.9 0.7 7.3-0.3 14.4 0 7.2 0.1 12.9 0.3 0.4 0.1 1.1 0.2 0.7 0 1-0.7 0.1-0.4-0.2-0.6-0.1-0.2-0.5-0.2-0.2 0-0.7 0.1-0.3 0.1-0.4 0.1zm-27.3 3.4q1.8-0.1 3.9-0.1 2.1 0.1 4.3 0.1 2.1 0 4.1-0.1 2-0.1 3.6-0.6-3.6 0.1-7.7 0-4.1 0-8.2 0.7zm-12.5-0.2q-1.6 0.1-3.2 0.1-1.4 0-2.6 0.6 1.3 0.2 3 0.1 1.8-0.1 3.6-0.2 1.8-0.2 3.6-0.3 1.9-0.2 3.6-0.2 0.3 0 0.6 0.1 0.4 0.1 0.6 0.1 0.4 0 0.5-0.1 0.2-0.1 0.1-0.7-2.2 0-5 0.2-2.9 0.1-4.8 0.3zm-8.2 0.9q0.4 0.3 0.5 0.2 0.2-0.2 0.4-0.2 0.1-0.3-0.1-0.5-0.1-0.3-0.3-0.3-0.2 0-0.4 0.2-0.2 0.2-0.1 0.6zm6.9 0.5q1.5 0.4 3.1 0.5 1.6 0.1 3.1 0 1.7-0.1 3.1-0.2 1.6-0.3 2.7-0.5-3.5 0.1-6.4 0.1-2.9 0-5.6 0.1zm10-84.7q0.2 0.8 0.2 1.8 0 1.1 0 2.2 0 1 0 2.1 0 1.1 0.1 2-0.3-0.5-0.5-1.4-0.1-1-0.1-2.1 0-1.2 0-2.4 0.1-1.2 0.3-2.2z"/><path class="c" d="m539.4 275.5l91.2-1.3 5.8 5.6 0.1 5.7-2.8 2.9v2.8q10.7-0.1 24.4 110.9l3 11.4q-34 9.7-33.9 17.6v2.8l14.3 5.5 14.3-3v2.8l2.8-2.9h2.9l5.7 5.6 0.1 5.7q-28 34.6-39.4 34.8-25.5 10.3-25.3 23.2 0.2 16.4-14 23-5.8-10.6-21.4-99.5 7.9-0.1 33.9-23.3v-2.9q-0.3-19.9-43.1-25l-6.2-31.3 2.6-20q-9.3 0.1-17.8-48.2zm256.6-3.7l59.9-0.9v5.7l-14.2 0.2-2.9-2.8-2.9 0.1-36.5 37.6-14.4-14.1q3.9-25.7 11-25.8zm68.5 4.7l-0.1-5.7 8.6-0.1 0.1 5.7zm-236.5 17.6l-14.3-2.6-5.6 5.8-8.6-2.8-28.1 31.8 8.6 2.8-2.8 2.8 0.1 5.7 22.8 2.6 27.9-43.2zm234.1 16.6l19.7-20.2 2.9-0.1q-34 220.1-39.6 225.9h-2.8l2.9 8.5q0.5 31.4-8.1 31.5l2.9 2.8 0.1 8.6-71.4-7.5q0.1 6.4 20.1 8.2l0.1 2.9q-13.3 20.1-28.3 20.3l0.2 11.4 22.6-11.7-2.8-2.8-0.1-2.8 14.1-14.5h2.8l5.8 5.6q-11.4 0.1-11.3 5.8h2.8l34.2-6.2h2.8l2.9 2.8 2.9-0.1q-3.6 48.6-22.2 48.8l-14.1 5.9 0.1 11.4 17.1-0.2 5.8 5.6 0.1 8.6-5.6 5.8-2.9-2.9v-2.8l-8.5 3 0.1 5.7q0 5 14.3 8.3l-36.9 208.7-2.8 2.9-14.3 0.2-2.9-2.8-2.8 2.9-5.7 0.1-2.9-2.8-2.8 2.9-19.9 0.3-2.9-2.8-2.8 2.8-5.7 0.1-2.9-2.8-2.8 2.9-17.2 0.3-2.8-2.9-2.9 2.9-5.7 0.1-2.8-2.8-2.9 2.9-5.7 0.1-5.7-5.6 14-14.5 11.4-0.2 2.9 2.8 8.5-2.9q-0.1-8.6-17.3-16.9-11.4 1.6-11.2 20.1l-14.2 0.2-2.8 2.9-2.9 0.1q-8.8-19.2-15.3-74l11.2-17.2-0.1-5.7q-9.3 0.1-14.8-34l2.7-11.5-0.1-5.7-11.2 8.7-6.1-28.4 2.8-2.9q-8.6 0.1-9-28.4-4.3 0.1-6.2-37h2.8l45.8 7.9 11.3-3q0.2 9.9 8.7 11.3 8.6 1.3 8.8 11.2l8.4-5.8h2.9l5.8 5.6-2.8 2.9v2.8q8.6-0.1 15.2 65.4 5.7-0.1 16-80.1l2.8-2.9 34.2-0.5-0.1-2.8-34.2 0.5-2.9-2.8 8.3-23q12.9 5.6 37.1 5.2l22.8-0.3v-2.9q-11.4 0.2-11.5-8.4h2.8l2.9 2.8 5.7-0.1v-2.8l-11.5-2.7-5.6 5.8-20 0.3-19.9 3.1v-2.9l8.4-11.5-2.9 0.1-8.4 8.6-2.9 0.1q15.9-140 32.2-140.2l2.9-2.9 45.7 5h5.7q-0.2-11.5-45.8-10.8l-11.4 0.2-5.8-5.7q5.3-74.2 21.7-74.4l16.9-17.4 2.9 2.8h2.8q-0.1-8.6 56.1-66.4zm-241.9 34.8l-8.5 0.2 0.1 5.7 5.7 5.6 2.8-2.9zm-36.7 23.3v2.9l5.7-0.1 0.1 2.9q28.5-3.3 28.4-9l-0.1-5.7-17.1 0.2q-17.1 0.3-17 8.8zm240.2 42.2l-14.2 3.1v5.7l22.8-0.3 5.7-5.8-0.1-2.9zm-149.7 102l2.9-0.1 15.2 68.3-19.9 6 0.2 11.4q5.2 11.3 11.6 11.2l-25.3 28.9-45.7-5.1-2.8 2.9q-7.2-7-12.2-56.8 62.5-66.5 76-66.7zm154.3 20.6h-2.8l-14 17.3h2.8zm-132.1 135.9l-2.8 0.1-8.4 11.5h2.8zm91.4 4.3l-8.6 3 0.1 2.9 20 2.5 11.3-3v-2.8l-11.4-2.7-2.8 2.9-5.8 0.1zm-39.7 14.8l-5.6 5.8 2.9 2.8 11.4-0.2v-2.8l-5.8-5.7zm-76.9 6.8l-2.9 0.1-19.6 23.1 2.9-0.1zm28.5 5.3l-11.3 3.1 0.1 5.7 14.2-0.2v-2.9l-2.9-2.8zm31.7 22.4l-5.6 5.7 14.3 2.7 5.7-0.1 14.2-3.1-0.1-2.8-14.3-2.7zm-42.5 17.8l-11.3 8.7 2.9 2.8 0.1 2.8 8.5-2.9z"/></svg>